<svg t="1622903026168" class="icon" viewBox="0 0 1024 1024" version="1.1" xmlns="http://www.w3.org/2000/svg" p-id="11992" width="200" height="200"><path d="M510.548 105.582c-129.797 0-235.386 105.593-235.386 235.39 0 93.999 55.509 175.067 135.354 212.767-147.613 43.35-255.793 179.825-255.793 341.273 0 10.275 8.327 18.594 18.594 18.594 10.267 0 18.594-8.319 18.594-18.594 0-175.702 142.956-318.65 318.636-318.65 129.797 0 235.395-105.593 235.395-235.39s-105.598-235.39-235.395-235.39z m0 433.591c-109.294 0-198.197-88.917-198.197-198.202 0-109.29 88.903-198.202 198.197-198.202 109.298 0 198.206 88.912 198.206 198.202 0 109.29-88.903 198.202-198.206 198.202z m0 0z m215.838 72.907c-8.175-6.229-19.83-4.686-26.057 3.487-6.245 8.17-4.686 19.826 3.484 26.074 79.681 60.886 125.367 153.241 125.367 253.366 0 10.279 8.332 18.598 18.595 18.598 10.275 0 18.594-8.319 18.594-18.598 0-111.818-51.024-214.941-139.984-282.927z m0 0z" fill="#8a8a8a" p-id="11993"></path></svg>