<svg t="1622799891705" class="icon" viewBox="0 0 1024 1024" version="1.1" xmlns="http://www.w3.org/2000/svg" p-id="11770" width="200" height="200"><path d="M855.5 221.3c-5.8-5.4-12.1-11.2-19.2-17.9-20.1-18.3-39.8-36.7-59-54.1-2.2-1.8-2.2-1.8-4.5-4-25.5-22.8-46.5-41.6-62.1-55-8.9-7.6-16.5-13.4-21.5-17.4-3.6-2.7-6.3-4.5-9.4-5.8-3.6-1.8-6.7-2.7-11.6-2.7-12.5 0.4-22.4 10.3-22.4 22.8v201.2H847L824.6 266v671l22.4-22.4H265.9c-37.1 0-67.1-30-67.1-67.1V88.1l-22.4 22.4h402.3c12.5 0 22.4-9.8 22.4-22.4 0-12.5-9.8-22.4-22.4-22.4H154.1v781.8c0 61.7 50.1 111.8 111.8 111.8h603.5V244.6H668.2l22.3 22.4V88.1c0 12.1-9.8 21.5-21.5 21.9-4 0-6.3-0.4-8.5-1.8-0.4 0 0.9 0.4 2.2 1.3 4 3.1 10.7 8 18.8 15.2 15.2 13 35.8 31.3 60.8 53.6 2.2 1.8 2.2 1.8 4.5 4 18.8 17 38.9 35.3 58.6 53.6 7.2 6.3 13.4 12.5 19.2 17.9 3.6 3.1 5.8 5.4 7.2 6.7 8.9 8.5 23.2 8 31.7-0.9s8-23.2-0.9-31.7c-1.3-0.8-3.5-3-7.1-6.6zM154.6 468.1H65.2v380h894v-380H199.3v-0.4h-44.7v0.4z m156.9 277.1h135.9v35.3H258.3v-28.6l131.4-190H259.2v-35.8h184.2v28.2L311.5 745.2z m220.4 35.3h-43.8V526.2h43.8v254.3z m98.3-94.3v94.3h-44.3V526.2h97.4c28.6 0 51 7.6 67.5 22.3 16.5 14.8 25 34.4 25 58.6 0 25-8 44.3-24.6 58.1-16.5 13.9-39.3 20.6-68.8 20.6h-52.3v0.4z m0-35.7h53.2c15.6 0 27.7-3.6 35.8-11.2 8-7.6 12.5-17.9 12.5-32.2 0-13.9-4-24.6-12.5-33.1s-20.1-12.5-34.4-12.5h-54.1v89h-0.5z m0 0" p-id="11771" fill="#707070"></path></svg>