<?xml version="1.0" ?><!DOCTYPE svg  PUBLIC '-//W3C//DTD SVG 1.1//EN'  'http://www.w3.org/Graphics/SVG/1.1/DTD/svg11.dtd'><svg enable-background="new 0 0 126 126" id="Layer_1" version="1.1" viewBox="0 0 126 126" xml:space="preserve" xmlns="http://www.w3.org/2000/svg" xmlns:xlink="http://www.w3.org/1999/xlink"><g><g><g><g><path d="M105.783,80.1622c-1.4882-0.2166-15.6165,4.4122-17.114,10.7417      c-1.4976,6.3382-12.8003,12.9354-17.6132,11.306s-11.1234,0.1131-11.1234,0.1131l-3.9746,1.9214l-0.9042,0.4332h-0.0094      L1,73.474l67.4382-39.199L120.768,64.49c1.6483,0.9511,3.0233,2.3638,3.7392,4.1252      C128.4819,78.335,107.1487,80.3507,105.783,80.1622z" fill="#F3F6FD"/><path d="M91.3126,79.9965c0.0072,0.2655-0.1794,0.5885-0.409,0.7174c-0.1507,0.0862-0.2798,0.0648-0.3515-0.0357      c0.0143,0.0214,0.0287,0.0501,0.0574,0.0645l-3.1424-1.8223c-0.122,0.0287-0.2224,0-0.2869-0.0858      c0.0215,0.0287,0.0359,0.0574,0.0645,0.0788l-0.452-0.2655c-0.0861-0.0501-0.1435-0.165-0.1435-0.3226      c0-0.0217,0.0072-0.0431,0.0072-0.0648l-0.3085-0.1794c-0.0143-0.007-0.0287-0.0287-0.043-0.0431      c-0.0143,0.0074-0.0287,0.0217-0.0502,0.0361c-1.5425,0.8968-4.0392,0.8968-5.5889,0c-0.782-0.4449-1.1694-1.0404-1.1694-1.6286      v-0.6386c0-0.5812,0.3875-1.1623,1.1479-1.6069c1.5425-0.8968,4.0463-0.8968,5.596,0c0.8824,0.5094,1.2483,1.2051,1.1192,1.8724      c0.0215-0.0788,0.043-0.165,0.043-0.2442v0.6386c0,0.33-0.1363,0.653-0.3803,0.9543l0.1076,0.0574      c0,0,0.0072-0.0074,0.0144-0.0144c0.1435-0.0788,0.2654-0.0862,0.3587-0.0357l0.452,0.2652      c0.0645,0.0431,0.1076,0.1223,0.1219,0.2298l3.1137,1.808C91.2696,79.7741,91.3126,79.8676,91.3126,79.9965z" fill="#E1E9F4"/><path d="M53.1874,86.2022c0.0236-0.0438,0.0184-0.0813-0.0054-0.1078l-0.3125-1.0355L48.4337,83.01      c0.0536-0.2772-0.311-0.3657-0.7985-0.3647l-0.2168-0.103c0.1281,0.0188,0.1849-0.0428,0.1849-0.0428      c0.6603-0.5769-0.7384-0.6275-1.4518-0.6217c-0.0683,0.0019-0.1255,0.0005-0.1899-0.0014l-4.6597-2.1518      c0.0211,0.0082,0.0385,0.0197,0.052,0.0351c-0.0207-0.0159-0.0414-0.0313-0.0731-0.0433      c0.8467-0.7906,2.1856-2.0955,2.6704-2.8856c0.4658-0.7713,0.9805-1.3709,1.7657-2.1518l2.0158-1.9969      c0.5176,0.0409,2.9791-2.1995,3.4042-2.301c0.6488-0.1545,0.7058-1.163,0.7044-1.3454      c-0.0052-0.179-1.5763,0.9282-3.2192,1.0268l0.0979-0.0933c0.0751-0.0654,0.0352-0.1261-0.0971-0.1333      c0,0-0.6041-2.5892-0.7035-2.5363c-0.2137,0.1131-0.5724,0.3296-0.7962,0.6433c-0.0423,0.0549-0.052,0.1063-0.0366,0.1554      l-0.0072-0.0005c0,0-0.1554,0.1631-0.3981,0.4239c-0.2418-0.0366-0.5168-0.0553-0.8331-0.0346l0.0979-0.0938      c0.0679-0.065,0.0281-0.1256-0.1006-0.1367l-1.7798,0.9912c-0.1109-0.0067-0.2554,0.0188-0.3548,0.0717      c-0.217,0.1092-1.6674,3.2576-1.8912,3.5713c-0.0423,0.0544-0.0449,0.1063-0.0294,0.1549      c-1.3873,1.1255-2.9626,2.7774-3.8312,3.7162c-0.4101,0.4499-0.988,0.8907-1.6159,1.3232      c-1.6307,1.126-2.0172,2.097-1.6452,2.39c-0.0219,0.0775-0.0784,0.1318-0.0973,0.1501      c-0.0037,0.0034-0.0037,0.0034-0.0037,0.0034c-0.0199,0.0404-0.0623,0.0948-0.0934,0.1463h0.0072      c-0.3104,0.46-1.111,1.1924-2.4265,2.1076c0,0,0,0-0.0038,0.0039c-0.8152,0.3859-1.5356,0.7376-1.9749,0.9893      c-1.8045,1.0167-1.2004,1.3983-0.6091,1.5378c0.2,0.0837,0.4745,0.1102,0.6319,0.1145      c-0.0489,0.0472-0.0226,0.0924,0.0663,0.1059c0.0319,0.0048,0.0749,0.0063,0.1182,0c-0.014,0.0626-0.0426,0.1323-0.0602,0.1987      c-0.0292,0.0067-0.0437,0.014-0.0223,0.0144c-0.0826,0.0722-0.4786,0.3883-0.974,0.5452      c-0.5577,0.1819-2.3491,1.433,1.5968,1.3584c0.3981-0.0072,1.0947-0.0318,1.7852-0.2916      c0.5041-0.1867,0.6062-0.2916,0.1306-0.4504c0.5943-0.4778,1.6614-1.4445,0.8728-1.649      c-0.2159-0.0544-0.367,0.0269-0.5364-0.0226c0.0795-0.0125,0.1706-0.0433,0.223-0.0866      c0.0259-0.0178,0.0377-0.0366,0.0422-0.0549l0.0038-0.0034c0.0726-0.0202,0.1453-0.0404,0.2147-0.065      c0.4927-0.1756,1.0489-0.3272,1.5609-0.4581c0.53-0.1338,0.9417-0.2671,1.2676-0.4027      c1.2425-0.3296,2.5592-0.7088,3.3465-0.8281l2.4058,1.0985c0.0457,0.0197,0.0991,0.025,0.1571,0.012l0.5828-0.114      c-0.0072,0-0.0072,0-0.0143-0.0005c0.0615-0.0091,0.1201-0.037,0.165-0.0731c0.0792-0.076,0.066-0.1694-0.0179-0.2088      l-1.3901-0.638c0.1819,0.0159,0.3677,0.0289,0.5538,0.0337l6.883,3.1782L49.0855,86.73l2.264,0.1607      c0.0602,0.013,0.1495,0.0192,0.2648,0.0072l0.0071,0.0005l1.6548,0.1583c0.0463,0.0048,0.1004-0.0043,0.1555-0.0289      c0.0441-0.0212,0.0704-0.0467,0.0644-0.0693L53.1874,86.2022z" fill="#E1E9F4"/><path d="M74.2388,97.1911c0.0287,0.0074,0.043,0.0144,0.0502,0.0287c0.0072,0.0287,0,0.0431-0.0502,0.0718      c-0.0215,0.0074-0.0359,0.0144-0.0646,0.0144c-0.0071,0.0357-0.1291,0.0862-0.1937,0.0788h-0.0144      c-0.0144,0.0287-0.0861,0.0574-0.1435,0.0648c-0.0215,0-0.0359-0.0074-0.0574-0.0074      c-0.2368-0.0287-0.3803-0.0431-0.5668-0.1005c-0.0215-0.007-0.0574-0.007-0.0933-0.007      c-0.0645,0.0144-0.1076,0.0501-0.1004,0.0788l0.0646,0.1149c0.0072,0.007,0,0.0144-0.0072,0.0214      c-0.0143,0.0361-0.1004,0.0648-0.1722,0.0648h-0.0072c-0.0143,0-0.0287-0.0074-0.0359-0.0144      c-0.1794-0.0862-0.3157-0.1794-0.4018-0.2799c-0.043-0.0501-0.0287-0.0862-0.043-0.1075      c-0.0574,0.0144-0.122,0.0357-0.2009,0.0501c0,0-1.2914-0.0932-1.6214-0.1075c-0.3229-0.0217-1.3632-0.165-1.5999-0.2225      c-0.2224-0.0501-2.4536,0.158-3.9459,0.1149c-0.1291,0-0.2511-0.0074-0.3659-0.0217c-0.0574,0.0144-0.1219,0.0287-0.1937,0.0431      c-0.8323,0.158-1.8582,0.4162-2.1595,0.488c-0.0287,0.0574-0.043,0.1075-0.0646,0.165      c0.2583-0.0504,0.4664-0.0574,0.5453,0.0214c0.33,0.2943,0.0789,0.9686,0,1.1266c-0.0645,0.1219-0.1722,0.2652-0.2654,0.3657      c0,0.0574-0.0287,0.1293-0.0789,0.2154c-0.3874,0.5952-3.7666,0.99-4.4051,0.3514c0,0-0.33-0.1293-0.165-0.5594      c-0.0072,0-0.0072,0-0.0072,0c-0.0574-0.0504-0.1507-0.0862-0.1937-0.1293c-0.0717-0.0788,0.0144-0.1794,0.0789-0.2655      c0.1005-0.1219,0.2009-0.2368,0.2942-0.3587c0.0502-0.0574,0.1076-0.1219,0.2009-0.1794      c0.1076-0.0645,0.2655-0.1146,0.3731-0.1794c0.1435-0.0858,0.165-0.1794,0.2152-0.2799      c-1.4133,0.3874-3.3504,0.7174-3.5298,0.818c-0.2152,0.1149-1.1336,0.5094-1.4421,0.6099      c-0.3085,0.1005-1.5066,0.5237-1.5066,0.5237h-0.2081c-0.0071,0.0214,0.0144,0.0575-0.0071,0.1076      c-0.043,0.1219-0.1435,0.2438-0.2726,0.3731c-0.0144,0.0074-0.0215,0.0144-0.043,0.0217      c-0.0287,0.007-0.0502,0.0144-0.079,0.0144c-0.043,0-0.0861-0.0144-0.1076-0.0287c-0.0144-0.0074-0.0144-0.0144-0.0144-0.0217      l0.0072-0.1289c0.0072-0.0287-0.043-0.0504-0.1148-0.0431c-0.0359,0.007-0.0646,0.0144-0.079,0.0287      c-0.1578,0.1076-0.2941,0.1506-0.5094,0.2438c-0.0144,0.0074-0.0287,0.0074-0.043,0.0144c-0.0646,0.0144-0.1363,0-0.1722-0.0217      l-0.0071,0.0074c-0.0646,0.0144-0.1937,0-0.2153-0.0287c-0.0287,0-0.043,0-0.0645-0.0074      c-0.0574-0.007-0.0718-0.0214-0.0718-0.0501c-0.0071-0.0144,0.0072-0.0214,0.0287-0.0357c-0.1507,0-0.0789-0.0718-0.0646-0.0788      c0.2368-0.1506,0.3803-0.3016,0.9686-0.5023c0.0574-0.0144,0.1004-0.0287,0.1435-0.0504l0.0933-0.0427      c-0.0071-0.0287-0.0071-0.0431-0.0071-0.0431c0.0789-0.1005,2.5182-1.1697,2.6402-1.2916      c0.0933-0.0788,2.4393-0.9108,4.1324-1.2769c0.3587-0.4663,0.6601-0.6386,1.4851-1.5354      c1.1479-1.2699,1.2053-1.7432,1.3201-2.0949c0,0,0.0144-0.007,0.0574-0.0214c-0.1794-0.2869-0.2654-0.7605,0.6314-1.3778      c0.6959-0.4806,1.973-1.657,2.1021-2.0374c0.409-1.1981,2.0447-2.3818,2.0447-2.3818c0.0215-0.1794,0.7677-3.0134,1.0833-3.1353      c0.409-0.158,0.7031-0.3514,1.7362-0.3374c0.0215-0.014,0.3013,0.3374,0.3085,0.33c0.0144-0.1794,0.2798,1.5354,0.6027,1.4135      c0.4376-0.172,0.904-0.2438,2.0734-0.2582c0.2296-0.0074,0.452,0,0.6672,0.0144c0.4448,0.0431,1.4636-0.4375,1.7218-0.2729      c0,0,0.4018,1.306-0.8107,1.3491c-1.0188,0.0214-1.8725,0.2939-2.6689,0.4733c0.2009,0.0431,0.3659,0.0935,0.4664,0.158      c0,0,0.2367,0.2512-0.9686,0.2943h-0.0359c-0.2511,0.4445-0.5166,1.0544-0.7892,1.5925      c-0.1292,0.2512-0.2009,0.5023-0.2009,0.7392c-0.0072,1.4636-0.5668,2.2742-0.7963,2.5398      c0.043,0.0214,0.0933,0.0431,0.1363,0.0571c0,0-0.5739,0.4953-0.9973,0.9329c-0.3157,0.33-0.904,0.9756-0.9327,1.2913      c-0.0144,0.1794,0.3013,0.5668,0.452,0.6456c0.2654,0.1436,0.452,0.4666,0.0287,0.7104      c1.4205,0.0287,2.8195,0.1436,2.9056,0.1864c0.1579,0.0792,2.8698,0.481,2.9846,0.5598c0,0,0.0072,0.0144,0,0.0431      l0.1148,0.0144c0.043,0.007,0.0933,0.0144,0.1507,0.0144c0.6385,0.0431,0.825,0.1506,1.112,0.2295      C74.2891,97.1049,74.3823,97.1483,74.2388,97.1911z" fill="#E1E9F4"/><g><g><g><path d="M84.7744,67.6297l4.2506-7.3921c0.0758-0.1304,0.0317-0.2394-0.0829-0.3062l-0.5676-0.3174         l-0.0336-0.0215c-0.1195-0.0715-0.3255-0.1001-0.5943-0.0733c0.2688-0.0268,0.4315-0.0954,0.4737-0.1812l0.3827-0.6716         c0.0493-0.0848-0.008-0.1843-0.1918-0.2904l-10.4445-5.9271c-0.3697-0.2089-1.0938-0.3362-1.6153-0.284l-25.0903,2.5035         c-0.2688,0.0268-0.4224,0.093-0.4737,0.1812l-0.3876,0.6669c-0.0493,0.0848,0.0108,0.1926,0.1968,0.2951l10.4445,5.9271         c0.3697,0.2089,1.0938,0.3362,1.6152,0.284c-0.5284,0.051-1.0681,0.3061-1.2199,0.5673l-4.2505,7.392         c-0.08,0.1376-0.0309,0.2513,0.1067,0.3182l0.5773,0.3271c0.1216,0.0681,0.3256,0.1,0.5943,0.0733l0.8381-0.0821         l-1.6012,2.7284c-0.2154,0.3706,0.0324,0.908,0.5523,1.2017c0.2649,0.1516,0.5533,0.2099,0.7971,0.1866l20.3447-2.0623         c-0.016,0.0012-0.0319,0.0022-0.0459-0.0003c0.2605-0.0125,0.4826-0.1174,0.6044-0.3136l2.3621-4.0375l0.002-0.0034         l1.2367-0.121C84.076,68.1448,84.6226,67.8909,84.7744,67.6297z" fill="#E1E9F4"/></g></g></g><g><g><g><g enable-background="new    "><g><polygon fill="#E1E9F4" points="105.5971,75.1429 105.999,74.7092 106.9723,74.8168 107.1876,74.5845 106.6852,73.9528            107.6744,74.0592 107.963,73.7477 107.7169,73.6168 107.3916,73.2064 107.7993,72.7664 108.7726,72.874 108.9821,72.6479            105.7425,68.5948 88.4536,67.4221 87.1458,68.8334 87.6479,69.4653 86.6591,69.3587 85.3513,70.7699 94.1467,76.81            105.8799,75.9957 106.1629,75.6903 105.9224,75.5533          "/></g></g></g></g></g><polygon fill="#FDFEFF" points="120.4058,64.2808 82.023,86.2911 72.838,80.988 111.2213,58.9778 110.6699,58.6595       72.2867,80.6698 43.6391,64.1302 82.0235,42.119 81.4722,41.8008 43.0877,63.812 33.9078,58.5117 72.2926,36.5005       71.7412,36.1823 4.0423,75.2303 4.5936,75.549 33.4735,58.7642 42.6534,64.064 13.7734,80.8488 14.3247,81.1675       43.2048,64.3822 52.4692,69.7312 23.5889,86.5161 23.9813,86.7428 52.8616,69.958 62.2055,75.3525 33.3249,92.1378       33.7125,92.3613 62.5929,75.576 71.8524,80.9223 42.9717,97.7076 43.523,98.0258 72.4038,81.2405 81.5887,86.5435       52.7077,103.3288 53.2591,103.6471 120.9572,64.599     "/></g><g><g><g><g><g><g><g><g><g><g><path d="M89.4396,41.4109L67.343,28.652c-0.2332-0.1344-0.4453-0.145-0.5937-0.0566l-0.7493,0.4313               c0.152-0.0849,0.3605-0.0742,0.5938,0.0601l0.4347,0.2475l-0.4383,0.7069l-0.0424,15.0243l22.1002,12.759               l0.8341,0.4806c-0.0035,0.2616-0.0954,0.4489-0.2439,0.5336l0.7458-0.4345c0.1484-0.0849,0.2438-0.2723,0.2438-0.5338               l0.0424-15.0209C90.2702,42.3228,89.8991,41.676,89.4396,41.4109z" fill="#3887E5"/><g><g enable-background="new    "><g><path d="M88.6907,41.8439c0.4603,0.2658,0.8337,0.9125,0.8322,1.4414l-0.0426,15.0183                  c-0.0015,0.5316-0.3773,0.7431-0.8376,0.4774L66.5466,46.0238c-0.4626-0.2671-0.8337-0.9098-0.8322-1.4414                  l0.0426-15.0183c0.0015-0.5289,0.3751-0.7444,0.8376-0.4774L88.6907,41.8439z" fill="#A6C2FF"/></g></g></g><g><polygon fill="#4C4A8B" points="88.6902,42.802 88.6476,57.8256 66.547,45.0658 66.5896,30.0422               "/></g></g><g><g><g enable-background="new    "><g><path d="M88.989,59.2653l-0.0035,1.3643c0,0.1733-0.1131,0.3429-0.3428,0.4772l-12.9851,7.5458                  c-0.4595,0.2651-1.2052,0.2651-1.6646,0L51.8963,55.8972c-0.2333-0.1344-0.3464-0.3111-0.3464-0.4879l0.0035-1.3606                  c0-0.1733,0.1166-0.35,0.3428-0.4808l12.9886-7.5458c0.4559-0.2685,1.2017-0.2651,1.6611,0l22.0966,12.759                  C88.8724,58.9153,88.989,59.0885,88.989,59.2653z" fill="#83A1CC"/></g></g></g><g><g><g enable-background="new    "><g><path d="M88.989,59.2653l-0.0035,1.3628c0,0.1733-0.1131,0.3427-0.3428,0.4772l-12.9851,7.5458                   c-0.4595,0.2651-1.2052,0.2651-1.6646,0L51.8963,55.8956c-0.2333-0.1343-0.3464-0.311-0.3464-0.4877l0.0035-1.3592                   c0,0.1731,0.1166,0.3498,0.3499,0.4841l22.0931,12.7555c0.463,0.2685,1.2087,0.2685,1.6646,0l12.9887-7.5458                   C88.876,59.6116,88.989,59.4385,88.989,59.2653z" fill="#83A1CC"/></g><g><g><polygon fill="#3A3A77" points="85.2494,62.2586 85.2507,62.7109 83.7123,63.5991 83.711,63.1468                                       "/></g><g><polygon fill="#3A3A77" points="82.3295,63.9444 82.3308,64.3967 81.4381,64.9121 81.4368,64.4598                                       "/></g><g><polygon fill="#3A3A77" points="87.4155,61.008 87.4168,61.4603 85.8784,62.3485 85.8771,61.8962                                       "/></g><g><path d="M88.1899,60.561c0.108-0.0624,0.1958-0.0125,0.1961,0.1118                    c0.0004,0.127-0.0868,0.2781-0.1949,0.3405s-0.1958,0.0123-0.1962-0.1147                    C87.9946,60.7742,88.0818,60.6233,88.1899,60.561z" fill="#3A3A77"/></g></g><g><path d="M88.642,58.7794c0.4604,0.2658,0.4651,0.697,0.0077,0.9628l-12.9873,7.5474                   c-0.4573,0.2658-1.2041,0.2658-1.6645,0L51.902,54.5324c-0.4604-0.2658-0.4628-0.6983-0.0054-0.9641                   l12.9873-7.5474c0.4573-0.2658,1.2018-0.2645,1.6621,0.0013L88.642,58.7794z" fill="#DEE7F8"/></g></g></g><path d="M71.3017,59.8059l-7.021-4.0536c-0.1468-0.0846-0.3841-0.0859-0.5298-0.0014l-3.4196,1.9872                c-0.1458,0.0847-0.1427,0.2223,0.0041,0.307l7.021,4.0536c0.1467,0.0847,0.3816,0.0847,0.5275,0l3.4195-1.9872                C71.4492,60.0268,71.4484,59.8907,71.3017,59.8059z" fill="#B6CBEA"/></g></g></g></g></g></g><g><polygon fill="#83A1CC" points="84.8753,58.3555 85.322,58.0961 84.5256,57.6361 84.0788,57.8958          "/><polygon fill="#83A1CC" points="83.8337,57.7539 84.2804,57.4945 83.484,57.0349 83.0372,57.2942          "/><polygon fill="#83A1CC" points="79.2661,59.486 78.4132,59.981 79.2104,60.4411 80.0625,59.9457          "/><polygon fill="#83A1CC" points="72.2031,52.3742 73.0553,51.8789 72.1468,51.3544 71.2939,51.8494          "/><polygon fill="#83A1CC" points="68.9935,53.5553 68.1413,54.0507 69.0512,54.5755 69.9033,54.0805          "/><polygon fill="#83A1CC" points="70.251,55.6212 69.3988,56.1165 70.3074,56.641 71.1595,56.1461          "/><polygon fill="#83A1CC" points="69.0437,54.9245 68.1916,55.4195 69.1014,55.9451 69.9536,55.4497          "/><polygon fill="#83A1CC" points="70.2007,54.2523 69.3486,54.7473 70.2578,55.2729 71.1106,54.7772          "/><polygon fill="#83A1CC" points="68.3308,51.8324 67.4793,52.3274 68.3885,52.8519 69.24,52.3573          "/><polygon fill="#83A1CC" points="67.8372,54.2279 66.9843,54.7229 67.8942,55.2481 68.7463,54.7528          "/><polygon fill="#83A1CC" points="64.2167,52.1376 63.3646,52.6329 64.2731,53.1574 65.1259,52.6621          "/><polygon fill="#83A1CC" points="65.424,52.8346 64.5712,53.3296 65.4804,53.8544 66.3325,53.3591          "/><polygon fill="#83A1CC" points="66.6306,53.5312 65.7784,54.0266 66.6869,54.5511 67.5397,54.0561          "/><polygon fill="#83A1CC" points="67.7876,52.859 66.9354,53.354 67.8439,53.8789 68.6968,53.3839          "/><polygon fill="#83A1CC" points="75.6972,59.7529 76.6506,60.3036 76.9704,60.1175 76.017,59.5675          "/><polygon fill="#83A1CC" points="74.8247,58.879 74.5049,59.0647 75.4582,59.6151 75.778,59.4294          "/><polygon fill="#83A1CC" points="75.3571,58.5694 75.0372,58.7554 75.9906,59.3054 76.3104,59.1201          "/><polygon fill="#83A1CC" points="71.4583,56.3182 70.6054,56.8135 71.5146,57.338 72.3668,56.8427          "/><polygon fill="#83A1CC" points="72.1481,51.0074 72.5956,50.748 71.6864,50.2232 71.2396,50.4829          "/><polygon fill="#83A1CC" points="70.9958,51.6772 71.848,51.1819 70.9395,50.6574 70.0874,51.1527          "/><polygon fill="#83A1CC" points="73.3554,51.7044 73.8022,51.4447 72.8937,50.9202 72.4469,51.1799          "/><polygon fill="#83A1CC" points="74.5626,52.4014 75.0094,52.1417 74.1002,51.6171 73.6535,51.8765          "/><polygon fill="#83A1CC" points="70.4581,52.7069 71.3102,52.2116 70.401,51.6871 69.5489,52.1821          "/><polygon fill="#83A1CC" points="73.4097,53.0709 74.2625,52.5759 73.3533,52.051 72.5012,52.5464          "/><polygon fill="#83A1CC" points="75.7692,53.098 76.216,52.8387 75.3075,52.3138 74.8607,52.5732          "/><polygon fill="#83A1CC" points="71.6647,53.4036 72.5175,52.9086 71.6083,52.3837 70.7562,52.8787          "/><polygon fill="#83A1CC" points="69.538,52.5294 68.6866,53.024 69.5951,53.5489 70.4465,53.0539          "/><polygon fill="#83A1CC" points="74.617,53.7679 75.4691,53.2725 74.5606,52.748 73.7078,53.2433          "/><polygon fill="#83A1CC" points="76.9765,53.795 77.4232,53.5353 76.5134,53.0104 76.0666,53.2698          "/><polygon fill="#83A1CC" points="72.8719,54.1002 73.7241,53.6052 72.8156,53.0804 71.9627,53.5757          "/><polygon fill="#83A1CC" points="70.7446,53.2264 69.8932,53.721 70.8023,54.2455 71.6538,53.7509          "/><polygon fill="#83A1CC" points="75.8242,54.4649 76.6764,53.9695 75.7665,53.4443 74.9144,53.9393          "/><polygon fill="#83A1CC" points="74.0792,54.7972 74.9313,54.3019 74.0215,53.777 73.1693,54.272          "/><polygon fill="#83A1CC" points="77.0308,55.1615 77.8836,54.6665 76.9738,54.141 76.1209,54.6363          "/><polygon fill="#83A1CC" points="75.2858,55.4942 76.1379,54.9992 75.2287,54.4737 74.3759,54.969          "/><polygon fill="#83A1CC" points="73.1578,54.6197 72.3063,55.114 73.2162,55.6395 74.0676,55.1445          "/><polygon fill="#83A1CC" points="78.2374,55.8578 79.0895,55.3625 78.1803,54.8383 77.3282,55.3333          "/><polygon fill="#83A1CC" points="76.4923,56.1905 77.3445,55.6952 76.4353,55.1707 75.5832,55.666          "/><polygon fill="#83A1CC" points="74.365,55.3163 73.5136,55.8113 74.4234,56.3362 75.2749,55.8415          "/><polygon fill="#83A1CC" points="72.6146,55.646 71.7624,56.1413 72.6709,56.6658 73.5238,56.1705          "/><polygon fill="#83A1CC" points="77.6989,56.8875 78.5511,56.3922 77.6426,55.8677 76.7904,56.3627          "/><polygon fill="#83A1CC" points="75.5723,56.0133 74.7202,56.508 75.6293,57.0328 76.4808,56.5378          "/><polygon fill="#83A1CC" points="74.7303,56.8675 73.8218,56.343 72.969,56.838 73.8782,57.3628          "/><polygon fill="#83A1CC" points="81.2698,57.6086 82.1219,57.1136 79.3876,55.535 78.5354,56.0299          "/><polygon fill="#83A1CC" points="76.7789,56.7103 75.9274,57.2046 76.8366,57.7295 77.6881,57.2348          "/><polygon fill="#83A1CC" points="75.0277,57.0393 74.1756,57.5346 75.0855,58.0595 75.9376,57.5645          "/><polygon fill="#83A1CC" points="80.1128,58.2812 80.9656,57.7858 80.0564,57.2613 79.2043,57.7566          "/><polygon fill="#83A1CC" points="82.6814,58.4238 83.5336,57.9284 82.7371,57.4687 81.8849,57.9637          "/><polygon fill="#83A1CC" points="85.9182,58.9571 86.365,58.6977 85.5685,58.2381 85.121,58.4974          "/><polygon fill="#83A1CC" points="77.9861,57.407 77.1347,57.9016 78.9564,58.9534 79.8079,58.4587          "/><polygon fill="#83A1CC" points="84.5751,58.53 83.7787,58.0703 82.9265,58.5653 83.723,59.025          "/><polygon fill="#83A1CC" points="81.5801,58.141 80.7279,58.6359 81.5244,59.096 82.3765,58.6006          "/><polygon fill="#83A1CC" points="86.6108,58.8396 86.164,59.0994 86.9605,59.5594 87.4072,59.2997          "/><polygon fill="#83A1CC" points="84.8209,58.6719 83.9688,59.1673 84.7653,59.6273 85.6181,59.132          "/><polygon fill="#83A1CC" points="76.235,57.7363 75.3822,58.2313 77.7987,59.6259 78.6509,59.1309          "/><polygon fill="#83A1CC" points="82.6217,58.7425 81.7695,59.2375 82.566,59.6972 83.4188,59.2022          "/><polygon fill="#83A1CC" points="80.4224,58.8138 79.5709,59.3085 80.3681,59.7685 81.2195,59.2735          "/><polygon fill="#83A1CC" points="85.8082,60.2289 86.6603,59.7339 85.8639,59.2742 85.0117,59.7692          "/><polygon fill="#83A1CC" points="83.6646,59.3441 82.8118,59.8395 83.6089,60.2995 84.4611,59.8042          "/><polygon fill="#83A1CC" points="81.464,59.4151 80.6125,59.9097 81.4096,60.3698 82.2611,59.8751          "/><polygon fill="#83A1CC" points="83.3034,60.4767 82.5069,60.017 81.6554,60.5117 82.4519,60.9717          "/><polygon fill="#83A1CC" points="80.3076,60.0876 79.4548,60.5826 80.252,61.0423 81.1041,60.5473          "/><polygon fill="#83A1CC" points="83.4942,61.5733 85.5033,60.4061 84.7069,59.9464 82.6977,61.1136          "/><polygon fill="#83A1CC" points="82.1464,61.1489 81.3499,60.6892 80.4977,61.1846 81.2942,61.6446          "/><polygon fill="#83A1CC" points="78.109,60.1583 77.2569,60.6532 79.0949,61.7145 79.9471,61.2195          "/><polygon fill="#83A1CC" points="80.1929,61.3614 79.3407,61.8568 80.1372,62.3168 80.99,61.8215          "/><polygon fill="#83A1CC" points="81.2195,62.8953 83.1893,61.7512 82.3928,61.2912 80.4231,62.4356          "/><polygon fill="#83A1CC" points="68.5284,48.9174 68.9752,48.6581 68.0667,48.1332 67.6192,48.3926          "/><polygon fill="#83A1CC" points="69.7356,49.6141 70.1824,49.3547 69.2726,48.8295 68.8258,49.0892          "/><polygon fill="#83A1CC" points="60.2772,49.8633 59.425,50.3583 60.6534,51.0672 61.5055,50.5722          "/><polygon fill="#83A1CC" points="63.8691,50.5966 61.4342,49.1911 60.5814,49.6861 63.0169,51.0919          "/><polygon fill="#83A1CC" points="61.8029,50.7439 60.9501,51.2389 61.8599,51.7641 62.7128,51.2688          "/><polygon fill="#83A1CC" points="64.2228,51.7882 65.0757,51.2933 64.1665,50.7684 63.3143,51.2637          "/><polygon fill="#83A1CC" points="63.0095,51.4406 62.1573,51.9359 63.0665,52.4605 63.9187,51.9655          "/><polygon fill="#83A1CC" points="64.7681,50.7616 65.6195,50.2673 64.711,49.7424 63.8589,50.2374          "/><polygon fill="#83A1CC" points="65.6311,49.9196 66.4832,49.4247 65.5741,48.8998 64.7219,49.3951          "/><polygon fill="#83A1CC" points="66.8377,50.6166 67.6898,50.1213 66.7813,49.5968 65.9292,50.0921          "/><polygon fill="#83A1CC" points="69.2508,52.0099 70.103,51.5146 69.1945,50.9901 68.3423,51.4854          "/><polygon fill="#83A1CC" points="68.5827,50.2843 69.4348,49.7886 68.5257,49.2637 67.6728,49.7587          "/><polygon fill="#83A1CC" points="69.79,50.9809 70.6421,50.4859 69.7322,49.9604 68.8801,50.4557          "/><polygon fill="#83A1CC" points="68.0449,51.3136 68.8971,50.8183 67.9872,50.2931 67.1351,50.7881          "/><polygon fill="#83A1CC" points="67.3761,49.5869 68.2283,49.0919 67.3191,48.5671 66.4669,49.0624          "/><polygon fill="#83A1CC" points="67.3211,48.2208 67.7679,47.9611 66.8594,47.4366 66.4126,47.6959          "/><polygon fill="#83A1CC" points="66.1689,48.8903 67.021,48.3953 66.1125,47.8704 65.2597,48.3654          "/><polygon fill="#83A1CC" points="65.6521,46.7392 65.2054,46.9993 66.1145,47.5235 66.5613,47.2641          "/><polygon fill="#83A1CC" points="64.9052,47.1738 64.0531,47.6688 64.9616,48.1936 65.8144,47.6983          "/><polygon fill="#83A1CC" points="78.9062,57.5842 79.7583,57.0892 78.8498,56.5643 77.997,57.0597          "/><polygon fill="#83A1CC" points="70.9422,50.3111 71.389,50.0514 70.4791,49.5265 70.0324,49.7859          "/><polygon fill="#83A1CC" points="78.1837,54.492 78.6305,54.2323 77.7206,53.7071 77.2739,53.9665          "/><polygon fill="#83A1CC" points="80.5969,55.885 81.0437,55.6253 80.1345,55.1007 79.6877,55.3605          "/><polygon fill="#83A1CC" points="79.3896,55.188 79.8364,54.9286 78.9279,54.4038 78.4804,54.6635          "/><polygon fill="#83A1CC" points="62.5905,48.5185 61.7391,49.0132 63.5608,50.065 64.4123,49.5703          "/><polygon fill="#83A1CC" points="63.7482,47.846 62.8961,48.341 64.4238,49.223 65.276,48.7277          "/><polygon fill="#83A1CC" points="71.408,54.949 70.5552,55.4443 71.4644,55.9688 72.3165,55.4739          "/><polygon fill="#83A1CC" points="71.9519,53.923 71.1004,54.418 72.0089,54.9425 72.8611,54.4479          "/><polygon fill="#83A1CC" points="65.3737,51.4654 64.5209,51.9607 65.4301,52.4852 66.2822,51.9899          "/><polygon fill="#83A1CC" points="67.1242,51.1357 66.2721,51.6304 67.1819,52.1556 68.0334,51.6609          "/><polygon fill="#83A1CC" points="65.9753,51.4589 66.8268,50.9639 65.9169,50.4391 65.0655,50.9334          "/><polygon fill="#83A1CC" points="66.5803,52.1624 65.7282,52.6574 66.6374,53.1822 67.4895,52.6869          "/><polygon fill="#83A1CC" points="72.6648,57.0152 71.8127,57.5102 73.0288,58.2122 73.8809,57.7173          "/><polygon fill="#83A1CC" points="73.6324,58.1905 73.3126,58.3766 74.2659,58.9266 74.5857,58.7412          "/></g><g><g enable-background="new    "><g><path d="M88.0831,40.6289L70.1724,30.2202l-0.0139-7.906c0-0.2852-0.1043-0.4868-0.2712-0.5771             L87.798,32.1386c0.1599,0.0974,0.2642,0.2991,0.2642,0.5843L88.0831,40.6289z" fill="#DEE7F8"/></g><g><path d="M87.9858,31.8049c-0.2155-0.1249-0.5076-0.1042-0.8413,0.0835             c-0.6466,0.3755-1.175,1.2932-1.175,2.0441l0.0487,20.1621L68.1143,43.6859l-0.0487-20.1621             c0-0.751,0.5284-1.6615,1.175-2.037c0.3268-0.1949,0.6258-0.2088,0.8413-0.0835L87.9858,31.8049z" fill="#DEE7F8"/></g><g><path d="M87.1477,31.8892c0.6513-0.376,1.1838-0.0726,1.1859,0.6759l0.0191,8.2183l-0.2728-0.157             l-0.0191-7.9038c-0.0016-0.5761-0.4109-0.8093-0.9122-0.5199c-0.5013,0.2894-0.908,0.9938-0.9063,1.5699l0.0515,20.1615             l-0.2728,0.1575l-0.0515-20.1615C85.9673,33.1816,86.4964,32.2652,87.1477,31.8892z" fill="#83A1CC"/></g></g></g></g><g><g><polygon fill="#4C4A8B" points="70.4293,37.749 69.8411,38.6115 69.3523,37.7649 69.7868,38.2117          "/></g><g><polygon fill="#4C4A8B" points="70.4214,40.5336 69.8332,41.3984 69.3445,40.5493 69.7789,40.9962          "/></g><g><path d="M69.0559,39.3957l1.6559,0.956l-0.0054,1.9003l-1.6559-0.956L69.0559,39.3957z M70.5652,42.0075           l0.0045-1.5773l-1.3727-0.7925l-0.0045,1.5773L70.5652,42.0075" fill="#9EB5DF"/></g><g><path d="M69.0638,36.6087l1.6559,0.956l-0.0054,1.9027l-1.6559-0.956L69.0638,36.6087z M70.5731,39.2231           l0.0045-1.5773l-1.3727-0.7925l-0.0045,1.5773L70.5731,39.2231" fill="#9EB5DF"/></g><g><path d="M69.0717,33.8243l1.6559,0.956l-0.0054,1.9003l-1.6559-0.956L69.0717,33.8243z M70.581,36.4362           l0.0045-1.5773l-1.3727-0.7925l-0.0045,1.5773L70.581,36.4362" fill="#9EB5DF"/></g><g><path d="M69.0796,31.0374l1.6559,0.956L70.73,33.8961l-1.6559-0.956L69.0796,31.0374z M70.5889,33.6517           l0.0045-1.5773l-1.3727-0.7925l-0.0045,1.5773L70.5889,33.6517" fill="#9EB5DF"/></g><g><polygon fill="#4C4A8B" points="70.4451,32.1777 69.8569,33.0401 69.3681,32.1935 69.8026,32.6403          "/></g><g><polygon fill="#9EB5DF" points="77.4754,31.6763 77.4746,31.964 69.0907,27.1235 69.0915,26.8358          "/></g><g><polygon fill="#9EB5DF" points="75.1869,32.7804 75.1863,32.9832 71.5032,30.8567 71.5038,30.654          "/></g><g><polygon fill="#9EB5DF" points="75.1711,38.3518 75.1705,38.5546 71.4874,36.4281 71.488,36.2254          "/></g><g><polygon fill="#9EB5DF" points="76.2976,41.163 76.297,41.3682 71.4813,38.5879 71.4819,38.3827          "/></g><g><polygon fill="#9EB5DF" points="76.3055,38.3786 76.3049,38.5813 71.4892,35.8009 71.4898,35.5982          "/></g><g><polygon fill="#9EB5DF" points="75.179,35.5649 75.1784,35.7701 71.4953,33.6436 71.4959,33.4385          "/></g><g><polygon fill="#9EB5DF" points="76.3134,35.5916 76.3128,35.7968 71.4971,33.0165 71.4977,32.8113          "/></g><g><polygon fill="#9EB5DF" points="76.3213,32.8072 76.3207,33.0099 71.505,30.2296 71.5056,30.0268          "/></g><g><polygon fill="#4C4A8B" points="70.453,29.3908 69.8648,30.2556 69.376,29.4067 69.8105,29.8534          "/></g><g><path d="M69.0875,28.2529l1.6559,0.956l-0.0054,1.9003l-1.6559-0.956L69.0875,28.2529z M70.5968,30.8648           l0.0045-1.5773l-1.3727-0.7925l-0.0045,1.5773L70.5968,30.8648" fill="#9EB5DF"/></g><g><polygon fill="#9EB5DF" points="80.2749,32.289 80.2741,32.579 69.0935,26.1238 69.0943,25.8339          "/></g><g><path d="M77.7135,33.2331l1.6559,0.956l-0.0054,1.9003l-1.6559-0.956L77.7135,33.2331z M79.2229,35.845           l0.0045-1.5773l-1.3727-0.7925l-0.0045,1.5773L79.2229,35.845" fill="#9EB5DF"/></g><g><polygon fill="#4C4A8B" points="79.0791,34.3711 78.4909,35.2359 78,34.3858 78.4365,34.8337          "/></g><g><polygon fill="#9EB5DF" points="84.9581,33.9891 84.9573,34.2791 69.0963,25.1218 69.0972,24.8318          "/></g><g><polygon fill="#4C4A8B" points="79.0554,42.7292 78.4672,43.5917 77.9763,42.7439 78.4128,43.192          "/></g><g><path d="M77.6898,41.589l1.6559,0.956l-0.0054,1.9027l-1.6559-0.956L77.6898,41.589z M79.1992,44.2033           l0.0045-1.5773l-1.3727-0.7925l-0.0045,1.5773L79.1992,44.2033" fill="#9EB5DF"/></g><g><polygon fill="#9EB5DF" points="75.1553,43.9232 75.1547,44.1259 71.4716,41.9995 71.4722,41.7968          "/></g><g><polygon fill="#9EB5DF" points="76.2897,43.9499 76.2891,44.155 71.4734,41.3746 71.474,41.1696          "/></g><g><path d="M77.6819,44.3759l1.6559,0.956l-0.0054,1.9003l-1.6559-0.956L77.6819,44.3759z M79.1913,46.9878           l0.0045-1.5773l-1.3727-0.7925l-0.0045,1.5773L79.1913,46.9878" fill="#9EB5DF"/></g><g><polygon fill="#4C4A8B" points="79.0475,45.5138 78.4593,46.3786 77.9684,45.5284 78.4049,45.9765          "/></g><g><polygon fill="#9EB5DF" points="83.805,40.5451 83.8044,40.7503 80.1213,38.6239 80.1219,38.4187          "/></g><g enable-background="new    "><g><polygon fill="#9EB5DF" points="84.9082,51.5897 84.9074,51.8774 69.0465,42.7201 69.0473,42.4324           "/></g><g><polygon fill="#9EB5DF" points="83.7813,48.9034 83.7807,49.1062 80.0976,46.9798 80.0982,46.777           "/></g><g><polygon fill="#9EB5DF" points="84.9157,48.9302 84.9151,49.1352 80.0994,46.3549 80.1,46.1498           "/></g><g><polygon fill="#9EB5DF" points="83.7892,46.1165 83.7886,46.3217 80.1055,44.1953 80.1061,43.9901           "/></g><g><polygon fill="#9EB5DF" points="84.9236,46.1433 84.923,46.3485 80.1073,43.5681 80.1079,43.3629           "/></g><g><polygon fill="#9EB5DF" points="83.7971,43.3321 83.7965,43.5348 80.1134,41.4084 80.114,41.2056           "/></g><g><polygon fill="#9EB5DF" points="84.9315,43.3588 84.9309,43.5616 80.1152,40.7812 80.1158,40.5784           "/></g></g><g><polygon fill="#9EB5DF" points="84.9473,37.7874 84.9467,37.9902 80.131,35.2098 80.1316,35.0071          "/></g><g><polygon fill="#9EB5DF" points="84.9394,40.5719 84.9388,40.7771 80.1231,37.9967 80.1237,37.7915          "/></g><g><polygon fill="#9EB5DF" points="83.8129,37.7607 83.8123,37.9634 80.1292,35.837 80.1298,35.6342          "/></g><g><polygon fill="#4C4A8B" points="79.0712,37.158 78.483,38.0203 77.9921,37.1726 78.4286,37.6206          "/></g><g><polygon fill="#4C4A8B" points="79.0633,39.9425 78.4751,40.8072 77.9842,39.957 78.4207,40.4051          "/></g><g><path d="M77.6977,38.8045l1.6559,0.956l-0.0054,1.9003l-1.6559-0.956L77.6977,38.8045z M79.2071,41.4164           l0.0045-1.5773l-1.3727-0.7925l-0.0045,1.5773L79.2071,41.4164" fill="#9EB5DF"/></g><g><path d="M77.7056,36.0176l1.6559,0.956l-0.0054,1.9027l-1.6559-0.956L77.7056,36.0176z M79.215,38.6319           l0.0045-1.5773l-1.3727-0.7925l-0.0045,1.5773L79.215,38.6319" fill="#9EB5DF"/></g><g><polygon fill="#4C4A8B" points="70.4372,34.9622 69.849,35.827 69.3602,34.978 69.7947,35.4248          "/></g><g><polygon fill="#9EB5DF" points="75.1632,41.1363 75.1626,41.3415 71.4795,39.215 71.4801,39.0098          "/></g></g></g><g><path d="M60.073,48.4354c-0.4165,0.0757-1.5867,0.0105-1.5785-0.5931c0,0,0.1061-0.2164,0.6054-0.1247         c0.4992,0.0917,0.7711-0.3606,0.0431-0.5165c-0.4721-0.0945-1.137,0.1168-1.5572,0.2819         c-0.2747,0.1075-0.6118,0.423-2.1546,0.0821c-0.8753-0.1933-1.8291,0.0991-2.709,0.1197         c-0.8488,0.0318-2.6541-1.9089-3.9859-2.7298l-0.2741,1.446c0.8994,0.4556-1.8029,0.2553-1.5284,0.8014         c0.5123,1.0309,4.5122,2.3321,5.5334,2.1812c1.0665-0.1535,3.4691-0.4119,4.3572-0.5114         c0.2981-0.0337,0.5976,0.0328,0.8722,0.1801c0.745,0.4017,2.3198,1.0457,2.6988-0.4324         C60.3954,48.6199,60.4894,48.3606,60.073,48.4354z" fill="#ECB4BF"/><g><g><g><g><g><g><g><g><path d="M49.0523,39.7745c0,0-2.7169,0.3239-2.7845,0.4916                 c-0.0182,0.0623-1.1786,3.1237-1.3592,3.8458c-0.3031,1.1739,2.9021,1.6189,2.7279,0.7032                 c-0.1096-0.5999-0.3066-1.0612,0.0678-1.2476c0.2447-0.1218,0.3074,0.0746,0.5832-0.0231                 C49.5917,43.0685,49.0523,39.7745,49.0523,39.7745z" fill="#ECB4BF"/></g><path d="M45.5301,43.5396c-0.3892-0.1356-0.5361-0.2616-0.5932-0.4612c0,0-2.672,0.0851-1.5985,3.1323                c0.5414,1.5366,2.5849,4.9511,3.1149,6.7118L45.5301,43.5396z" fill="#3A3A77"/><path d="M49.0578,44.9531c-0.3671-0.277-0.7512-0.6-1.0553-0.9651                c-0.2132-0.2565-0.5474-0.3723-0.8794-0.3424c-0.7028,0.0637-1.8103,0.0504-1.9592-0.6316                c0,0-2.313-0.1551-1.4318,2.9839c0.8811,3.139,0.9967,5.5628,0.6827,6.7267c0,0,3.3838,4.7041,5.5451,0.7828                c0,0-0.0048-4.8764,0.1972-5.7944C50.3333,46.9121,50.3697,45.9431,49.0578,44.9531z" fill="#4C4A8B"/><g><path d="M47.0593,44.0141c-0.7313,0-1.8515-0.1324-2.0232-0.9228                 c-0.0266-0.1224,0.051-0.2433,0.174-0.2699c0.1174-0.0276,0.2415,0.0515,0.2692,0.1735                 c0.133,0.6143,1.6288,0.5925,2.1462,0.537c0.1186-0.013,0.236,0.0769,0.2504,0.201                 c0.0133,0.1247-0.0765,0.2366-0.2017,0.2503C47.6022,43.9909,47.3651,44.0141,47.0593,44.0141z" fill="#3A3A77"/></g><g><path d="M44.4438,52.7406c-0.0151-0.011-0.029-0.0159-0.029-0.0159S44.4329,52.7347,44.4438,52.7406z                 " fill="#73BC9C"/><path d="M46.4753,70.0057c0.1521-0.9277,2.2706-1.215,2.2706-1.215s1.693-0.1065,2.4472-0.4076                 c0.7542-0.3011,0.766,0.4864,0.5815,0.8338s-1.6074,1.9226-3.1053,1.6446l0.0027,0.1837                 c0.002,0.1323-0.0993,0.2428-0.2339,0.2553l-1.5707,0.1463c-0.1149,0.0108-0.2253-0.0514-0.2699-0.1562                 C46.5011,71.0644,46.374,70.623,46.4753,70.0057z" fill="#2A2A5E"/><path d="M43.5887,68.0344c0.1521-0.9277,2.2706-1.215,2.2706-1.215s1.693-0.1065,2.4472-0.4076                 c0.7542-0.3011,0.766,0.4864,0.5815,0.8338s-1.6074,1.9226-3.1053,1.6446l0.0027,0.1837                 c0.002,0.1323-0.0993,0.2428-0.2339,0.2553l-1.5707,0.1463c-0.1149,0.0108-0.2253-0.0514-0.2699-0.1562                 C43.6145,69.0931,43.4875,68.6517,43.5887,68.0344z" fill="#2A2A5E"/><path d="M49.9599,53.5075c-0.9204,1.7092-5.2155-0.6025-5.5161-0.7669                 c0.0395,0.0287,0.1029,0.1213-0.085,0.2761c-0.6639,0.5479-1.2747,2.4422-0.8254,4.7014                 c0.1732,0.871,0.2838,1.7528,0.2311,2.6392c-0.1103,1.8579-0.2506,5.1306-0.0457,7.3752                 c0,0,1.4445,0.8443,2.2621-0.7087c0,0-0.0852-4.1591,0.1363-5.0388c0.0488-0.1938,0.3022-2.5063,0.5992-3.5209                 c0.1395,0.6866,0.2193,1.3482,0.2634,2.5722c0.0336,0.9315,0.0184,1.8674-0.0492,2.7971                 c-0.1535,2.1133-0.3392,5.876-0.3392,5.876c1.8782,0.72,2.5358-0.5,2.5358-0.5l0.0749-4.4096                 c0.0284-1.5489,0.1377-2.7315,0.463-4.246C50.1681,58.2122,49.9599,53.5075,49.9599,53.5075z" fill="#3A3A77"/></g></g></g></g></g></g><g><path d="M49.3321,54.3271c0.3183-0.0931,0.55-0.277,0.7314-0.5097            c-0.0551-0.1917-0.1008-0.4499-0.1004-0.6643c-0.1288,0.2089-0.5429,0.5573-0.7894,0.6293            c-1.4593,0.4238-4.4919-1.2349-4.6226-1.3058l-0.0792-0.0438c-0.0184,0.0975-0.0339,0.2033-0.0571,0.2875            c0,0,0.0117,0.1191-0.0559,0.2964c0.3951,0.215,2.6445,1.3994,4.2819,1.3994            C48.8978,54.4163,49.1305,54.3863,49.3321,54.3271z" fill="#4C4A8B"/></g></g><g><path d="M45.4673,42.4435c0,0-0.0007-0.0124-0.002-0.0305C45.4442,42.4162,45.451,42.4285,45.4673,42.4435z           " fill="#6262AA"/><path d="M49.4458,39.4347c-0.4132-0.5335-1.064-0.6227-1.4403-0.6584           c-3.7718-0.3568-3.2966,2.1516-2.935,2.53c0.3203,0.3356,0.3843,0.9667,0.3948,1.1067           c0.2701,0.2106,0.7116,0.4257,1.4235,0.4028c0.7676-0.8218,0.2991-0.9755,0.609-1.2855           c0.3099-0.31,0.5337,0.2583,0.5337,0.2583c0.6541-0.3961,0.1224-1.1274,0.1224-1.1274           C49.6861,40.162,49.8589,39.9681,49.4458,39.4347z" fill="#2A2A5E"/></g></g><g><g><g><g><g><g><path d="M68.0649,43.1295l1.1793-1.5925c0.0298-0.0402,0.0328-0.0943,0.0077-0.1376               s-0.0736-0.0675-0.1233-0.0616l-1.9679,0.2339L68.0649,43.1295z" fill="#2A2A5E"/><g><g enable-background="new    "><path d="M67.5163,41.6213c-0.1642-0.0905-0.3127-0.1065-0.429-0.0669l-2.3719,0.1872l0.004,0.0068                 l-16.6571,9.6567c0.2501-0.1452,0.5971-0.1234,0.9814,0.0901c0.7693,0.4455,1.3944,1.5228,1.3995,2.4118                 c0.0028,0.4536-0.1573,0.7694-0.4146,0.9188l16.6751-9.6578l1.3605-1.9786                 c0.0809-0.0842,0.1339-0.2172,0.1337-0.3936C68.1891,42.3642,67.8826,41.8361,67.5163,41.6213z" fill="#6B9EF9"/><path d="M47.6485,52.3164c0.002,0.8926,0.629,1.9727,1.4006,2.4129                 c0.7714,0.4401,1.3953,0.0736,1.3932-0.819c-0.002-0.8924-0.6292-1.9728-1.4006-2.4129                 C48.2701,51.0572,47.6465,51.424,47.6485,52.3164z" fill="#1E72C6"/></g></g></g></g></g></g><g><g enable-background="new    "><g><path d="M49.7326,49.0574l6.0266-3.4672c0.0598-0.0347,0.1177-0.0383,0.1616-0.0139l0.4539,0.2533              c-0.0443-0.0242-0.1018-0.0208-0.1616,0.0139l-6.0223,3.4746c-0.1196,0.0694-0.2245,0.2501-0.2309,0.3936l0.0013,0.8727              l-0.4564-0.0185l0.0013-1.1075C49.5081,49.3075,49.6129,49.1268,49.7326,49.0574z" fill="#4C5671"/></g><g><path d="M50.0567,49.4508c-0.1597-0.0749-0.3206-0.1474-0.4825-0.2179              c-0.0401,0.0715-0.0671,0.1515-0.0682,0.2255l-0.0014,1.1075l0.4564,0.0186l-0.0012-0.8728              C49.9636,49.6274,50.0019,49.5307,50.0567,49.4508z" fill="#373F51"/></g><path d="M49.9625,49.7147l-0.0003,0.8642l0.4615-0.266l0.0009-0.5968l5.7886-3.3345             c0.1261-0.0727,0.2301-0.2538,0.2299-0.4003c-0.0006-0.1463-0.1051-0.2072-0.2311-0.1345l-6.0191,3.4674             C50.0668,49.3868,49.9623,49.5682,49.9625,49.7147z" fill="#373F51"/></g></g></g><g><g enable-background="new    "><g><path d="M46.1254,53.6132l2.2579-1.3041c0.1314-0.0758,0.3125-0.0656,0.5127,0.0486             c0.4028,0.2298,0.7303,0.794,0.7314,1.26c0.0005,0.2345-0.0817,0.3995-0.2148,0.4763l-2.2579,1.3041             c0.1331-0.0768,0.2154-0.2417,0.2148-0.4763c-0.0011-0.466-0.3285-1.0302-0.7314-1.26             C46.4379,53.5476,46.2569,53.5374,46.1254,53.6132z" fill="#DEE7F8"/></g><path d="M45.9106,54.0894c0.0011,0.4661,0.3285,1.0301,0.7314,1.26            c0.4028,0.2298,0.7286,0.0384,0.7275-0.4277c-0.0011-0.466-0.3285-1.0302-0.7314-1.26            C46.2352,53.4319,45.9095,53.6235,45.9106,54.0894z" fill="#B6CBEA"/></g></g></g><g><path d="M58.6749,49.7883c-0.3133,0.1776-1.2608,0.4841-1.4014,0.0593c0,0,0.0317-0.1835,0.4515-0.2694          c0.4199-0.0859,0.5261-0.484-0.0915-0.374c-0.3989,0.0759-0.8767,0.4234-1.1711,0.6651          c-0.1926,0.1579-0.4264,0.2476-0.6749,0.2653c-0.255,0.0178-0.5095,0.0408-0.7635,0.0718          c-0.7466,0.0833-1.4422,0.3621-2.1378,0.641c-0.9587,0.3981-1.7277-1.1496-1.7621-1.2467c0,0-0.042-0.1966-0.1769-0.667          c-0.4841,0.3174-0.8566-0.0541-1.4561,0.0545c-0.1693,0.0397-0.2769,0.057-0.3574,0.0719          c-0.3139,0.1687-0.1189,1.1971-0.4653,1.2956c0.5685,0.8099,1.2179,1.124,2.1866,1.9496          c0.6592,0.5675,1.601,0.6693,2.3773,0.2574c0.8117-0.4283,2.2798-1.156,2.9626-1.4927          c0.2293-0.1128,0.4837-0.1567,0.7384-0.1359c0.6912,0.0572,2.1018,0.034,2.0433-1.1139          C58.9765,49.8202,58.988,49.6103,58.6749,49.7883z" fill="#ECB4BF"/><g><g><g><g><path d="M51.2807,49.6367c-0.1874-0.9597-0.6022-2.165-0.7606-2.595              c-0.4273-1.1578-1.7989-1.6949-2.4208-1.1567c-0.6235,0.5366-0.9177,1.5437-0.4903,2.7001              c0.1398,0.3793,0.7194,1.396,1.1888,2.124C49.6797,49.2187,51.2731,49.6346,51.2807,49.6367z" fill="#3A3A77"/></g></g></g></g></g></g><path d="M73.408,84.5604c-1.1992-0.0833-1.6921,0.1646-2.5975-0.6774l-1.5256,0.3777        c0,0-0.4473,1.3635-0.091,1.8248c0.3276,0.4254,1.4984-0.0697,2.6547-0.0321c0.2286,0.0077,0.455,0.0041,0.6803-0.0418        c0.4782-0.0972,1.2828-0.3128,1.6522-0.7172C74.1811,85.2945,74.5892,84.661,73.408,84.5604z" fill="#2A2A5E"/><path d="M71.0216,83.0826c-1.1992-0.0833-1.6921,0.1646-2.5975-0.6774l-1.5256,0.3777        c0,0-0.4473,1.3635-0.091,1.8248c0.3276,0.4254,1.4984-0.0697,2.6547-0.032c0.2286,0.0077,0.455,0.0041,0.6803-0.0418        c0.4782-0.0972,1.2828-0.3128,1.6522-0.7172C71.7947,83.8167,72.2027,83.1831,71.0216,83.0826z" fill="#2A2A5E"/><g><g><path d="M70.1232,69.3232l-3.7239-1.1905c-0.209,0.372-1.4543,1.8438-0.749,4.1232          c0.3662,1.1841,0.8482,4.0832,0.7188,5.0219c-0.4076,2.9563,0.4229,5.8903,0.4229,5.8903          c0.8145,0.1833,1.4801,0.0946,1.8293-0.5618c-0.0674-0.9079,0.1704-3.1086,0.2968-4.9281          c0.0433-0.6238,0.135-1.2348,0.2977-1.8264C70.4684,71.2965,70.1232,69.3232,70.1232,69.3232z" fill="#3A3A77"/></g></g><g><g><path d="M72.4885,70.7967l-3.7239-1.1905c-0.209,0.372-1.4544,1.8438-0.7491,4.1232          c0.3662,1.1841,0.8482,4.0832,0.7188,5.0219c-0.4076,2.9563,0.4229,5.8903,0.4229,5.8903          c0.8145,0.1833,1.4801,0.0946,1.8293-0.5618c-0.0674-0.9079,0.1704-3.1086,0.2968-4.9281          c0.0433-0.6238,0.135-1.2348,0.2977-1.8264C72.8337,72.77,72.4885,70.7967,72.4885,70.7967z" fill="#4C4A8B"/></g></g><g><g><path d="M60.4238,53.1454c0.038,0.0396,0.0727,0.0824,0.1033,0.1288l0.2801,0.432          c-0.0306-0.0447-0.0298-0.1162,0.0105-0.2056c0.0824-0.1827,0.2967-0.369,0.4785-0.4162          c0.0886-0.023,0.1526-0.0082,0.186,0.0336l0.0007-0.0007l-0.0632-0.0912c-0.1267-0.202-0.0133-0.2133,0.0192-0.4793          c0.0365-0.2995,0.0223-0.6065-0.0234-0.918c-0.0027-0.0182-0.0106-0.0344-0.0228-0.0465l-0.0026-0.0025          c-0.0519-0.0516-0.1462-0.035-0.2012,0.0364c-0.0112,0.0145-0.019,0.0312-0.023,0.0482l-0.075,0.3142          c-0.0162,0.0681-0.0852,0.1183-0.1474,0.106c-0.0324-0.0064-0.0556-0.0307-0.0658-0.0624          c-0.0847-0.2636-0.1941-0.3711-0.3408-0.6001c-0.01-0.0156-0.0228-0.0287-0.0381-0.0388          c-0.0525-0.0343-0.1312-0.0111-0.1749,0.0514l-0.0096-0.0097c-0.0517-0.0526-0.1916-0.0134-0.2359,0.0643          c-0.0201-0.0056-0.0434-0.0016-0.0672,0.0074c-0.0666,0.0253-0.088,0.0654-0.1081,0.1325          c-0.0097,0.0325-0.0055,0.0648,0.0088,0.0904c-0.156,0.0068-0.1319,0.1711-0.1248,0.1902          C59.9286,52.2887,59.9606,52.6616,60.4238,53.1454z" fill="#ECB4BF"/><path d="M66.8826,60.2209c0.6943-0.2151,0.7566-0.8054,0.6721-1.2932          c-0.0774-0.4466-0.297-0.8251-0.6059-1.1058c-1.1318-1.0286-3.0783-1.9382-3.1947-2.1979          c-0.1304-0.2909-0.7879-1.2743-1.0264-1.5157s-1.1512-1.2843-1.1512-1.2843c-0.8077-0.0626-1.0271,0.669-1.0271,0.669          c0.0128,0.2514,1.7198,2.8929,1.7643,3.1764C62.3583,56.9528,65.6203,60.6121,66.8826,60.2209z" fill="#1E72C6"/></g><g><g><g><path d="M73.1633,63.8403c0.5176-0.4952,1.1004-1.8784-0.1446-2.3979            c-1.0943-0.4569-0.3947-1.4585-1.1938-1.8803c-0.8611-0.4547-1.8906-1.2666-1.8906-1.2666s-1.3183,0.5744-2.5002-0.2789            c0,0-1.8644-0.2124-1.8644,1.33c0,1.5451,0.2125,1.7652,0.4463,4.2836c0.2907,3.1306,0.0238,4.3009-0.1066,5.1711            c0,0,4.4223,4.2917,6.7775,2.1132c0,0-0.236-1.2162-0.3562-2.3007c-0.0916-0.8124-0.2464-2.4074-0.0602-3.1811            C72.3773,64.9887,72.9636,64.0317,73.1633,63.8403z" fill="#1E72C6"/><path d="M71.3282,53.7847c0,0-2.2822,0.3738-2.2958,0.4108c-0.0136,0.0369-1.5472,2.8099,0.0726,3.3148            c0.5839,0.182,1.2094,0.8066,1.5071,0.3928c0.5283-0.7341,0.7378-2.3951,0.7615-2.7835            C71.4106,54.5124,71.3282,53.7847,71.3282,53.7847z" fill="#E2B3C7"/></g></g></g><g><g><path d="M80.3872,60.0529c-0.0544,0.0071-0.1083,0.0188-0.1612,0.0358l-0.4888,0.1615           c0.0518-0.0157,0.096-0.072,0.1206-0.1669c0.0501-0.194-0.0003-0.4735-0.1125-0.6242           c-0.0547-0.0733-0.1138-0.1019-0.1661-0.0902l-0.0002-0.001l0.1064-0.0316c0.2253-0.0782,0.1439-0.158,0.2851-0.3857           c0.1591-0.2564,0.3624-0.4869,0.5931-0.7011c0.0135-0.0125,0.0298-0.0202,0.0469-0.022l0.0036-0.0004           c0.0728-0.0078,0.1359,0.0643,0.1341,0.1544c-0.0004,0.0183-0.0048,0.0362-0.0123,0.052l-0.1382,0.2919           c-0.03,0.0633-0.0076,0.1456,0.0485,0.1749c0.0293,0.0153,0.0626,0.0109,0.0904-0.0074           c0.2311-0.1525,0.3838-0.1678,0.6415-0.2546c0.0175-0.0059,0.0358-0.0081,0.054-0.0064           c0.0624,0.0061,0.1093,0.0734,0.1042,0.1496l0.0136-0.0016c0.0732-0.0087,0.1578,0.1095,0.1437,0.1978           c0.0192,0.0082,0.0348,0.026,0.0477,0.0478c0.0361,0.0615,0.0277,0.106,0.0013,0.171           c-0.0128,0.0314-0.0363,0.054-0.0635,0.065c0.1174,0.103-0.0043,0.216-0.0218,0.2264           C81.3098,59.695,81.0513,59.9657,80.3872,60.0529z" fill="#ECB4BF"/><path d="M70.921,61.5258c-0.4067-0.6024-0.0857-1.1017,0.2857-1.4291           c0.34-0.2998,0.7482-0.4574,1.1648-0.4829c1.5265-0.0934,3.6138,0.4161,3.8671,0.2866           c0.2838-0.1452,1.4122-0.5002,1.7493-0.5391c0.3371-0.0389,1.7018-0.2807,1.7018-0.2807           c0.669,0.4569,0.382,1.1647,0.382,1.1647c-0.1674,0.188-3.1523,1.1789-3.3645,1.372           C76.4949,61.8104,71.6603,62.6212,70.921,61.5258z" fill="#1E72C6"/></g></g><path d="M67.2545,52.8258c0,0-0.4094,0.3145-0.5442,1.368c-0.0012,0.003-0.0025,0.0061-0.0037,0.0091         c-0.0867,0.1151-0.2065,0.2037-0.281,0.3206c-0.1198,0.1897-0.1099,0.4296-0.0999,0.6542         c0.02,0.2896,0.035,0.5793,0.0499,0.8738c0.01,0.1499,0.02,0.3096,0.0799,0.4544c0.0649,0.1549,0.1848,0.2845,0.2497,0.4445         c0.1448,0.3745-0.0799,0.8088,0.0449,1.1932c0.0699,0.2148,0.2447,0.3896,0.2697,0.6093         c0.0499,0.3594-0.2946,0.6839-0.2397,1.0384c0.035,0.2148,0.2097,0.3945,0.2197,0.6144         c0.005,0.1946-0.1248,0.3694-0.2097,0.5443c-0.2047,0.4393-0.1148,0.9938,0.2147,1.3483         c0.045,0.0449,0.0999,0.0949,0.1598,0.1097c0.1598,0.0449,0.3296-0.0949,0.4844-0.0449         c0.1248,0.04,0.1848,0.1848,0.2896,0.2646c0.0999,0.07,0.2297,0.08,0.3495,0.09c0.4344,0.0249,0.8738,0.0449,1.3083,0.0698         c0.0799,0.0051,0.1598,0.0102,0.2297-0.0298c0.0949-0.0599,0.1298-0.1897,0.2347-0.2397         c0.1248-0.0599,0.2846,0.0349,0.4145-0.025c0.1049-0.0498,0.1398-0.1897,0.1148-0.3046         c-0.025-0.1148-0.0949-0.2148-0.1448-0.3196c-0.3096-0.6342,0.04-1.4031-0.1148-2.0922         c-0.0749-0.3345-0.2697-0.6391-0.3196-0.9787c-0.0449-0.2797,0.01-0.5593,0.04-0.839         c0.0666-0.7518-0.0844-1.5079-0.0686-2.2557c0.0015-0.0719,0.036-0.1389,0.0925-0.1834         c0.0017-0.0013,0.0033-0.0027,0.005-0.004c0.1457-0.1146,0.3615-0.0303,0.3884,0.1531         c0.0201,0.1369,0.0383,0.2987,0.0456,0.468l0.2547-0.2497c0,0-0.1258-0.2988-0.0509-0.7782         c0.01-0.0449,0.035-0.0849,0.0749-0.1148c0.3595-0.2546,0.6165-0.5355,0.6315-1.3094         C71.449,52.2165,68.3331,51.2379,67.2545,52.8258z" fill="#A0533F"/></g></g></g></g></g><g><g><g><g enable-background="new    "><g><polygon fill="#6262AA" points="99.0208,72.7964 88.8842,66.9057 95.8756,62.8692 106.0121,68.7599        "/></g><g><polygon fill="#7D8086" points="99.0208,72.7964 88.8842,66.9057 88.8802,65.4758 99.0167,71.3665        "/></g><g><polygon fill="#FFFFFF" points="105.2758,67.1815 105.2798,68.6114 98.5386,72.5035 98.5345,71.0735        "/></g><g><polygon fill="#6262AA" points="98.5751,71.1158 88.4386,65.2251 95.8702,60.9345 106.0067,66.8252        "/></g><g><polygon fill="#2A2A5E" points="98.5821,73.4238 88.4455,67.5331 88.4386,65.2251 98.5751,71.1158        "/></g><polygon fill="#FFFFFF" points="93.24,68.6249 93.24,69.8412 88.9714,67.3608 88.9683,66.1425       "/><g><g><g><path d="M96.4718,71.2439c0,0.389,0.2592,0.8374,0.5982,1.037c0.1097,0.0599,0.2094,0.0896,0.3091,0.0896           c0.0698,0,0.1396-0.02,0.1994-0.0497c0.1496-0.0798,0.2193-0.2395,0.2293-0.4591c0-0.3885-0.2692-0.8471-0.6082-1.0365           c-0.0997-0.0599-0.1994-0.0901-0.2991-0.0901c-0.0698,0-0.1396,0.02-0.2094,0.0501           C96.5516,70.8647,96.4718,71.0244,96.4718,71.2439z" fill="#FFFFFF"/></g></g><g><path d="M97.1379,70.9885c-0.2698-0.1558-0.4889-0.0276-0.4897,0.2826          c-0.0009,0.31,0.2167,0.6869,0.4866,0.8427s0.4919,0.0328,0.4928-0.2772C97.6283,71.5263,97.4077,71.1443,97.1379,70.9885z" fill="#2A2A5E"/></g></g><g><polygon fill="#4C4A8B" points="106.0067,66.8252 106.0081,67.33 105.7579,67.3429 99.0167,71.235 99.0208,72.7964          106.0121,68.7599 106.0136,69.1332 98.5821,73.4238 98.5751,71.1158        "/></g></g></g></g><g><g><g enable-background="new    "><g><polygon fill="#6B9EF9" points="99.0208,69.6219 88.8842,63.7312 95.8756,59.6947 106.0121,65.5854        "/></g><g><polygon fill="#7D8086" points="99.0208,69.6219 88.8842,63.7312 88.8802,62.3012 99.0167,68.1919        "/></g><g><polygon fill="#FFFFFF" points="105.2758,64.0069 105.2798,65.4369 98.5386,69.3289 98.5345,67.899        "/></g><g><polygon fill="#6B9EF9" points="98.5751,67.9412 88.4386,62.0505 95.8702,57.7599 106.0067,63.6506        "/></g><g><polygon fill="#1E72C6" points="98.5821,70.2493 88.4455,64.3586 88.4386,62.0505 98.5751,67.9412        "/></g><polygon fill="#FFFFFF" points="93.24,65.4504 93.24,66.6666 88.9714,64.1863 88.9683,62.968       "/><g><g><g><path d="M96.4718,68.0694c0,0.389,0.2592,0.8374,0.5982,1.037c0.1097,0.0599,0.2094,0.0896,0.3091,0.0896           c0.0698,0,0.1396-0.02,0.1994-0.0497c0.1496-0.0798,0.2193-0.2395,0.2293-0.4591c0-0.3885-0.2692-0.8471-0.6082-1.0365           c-0.0997-0.0599-0.1994-0.0901-0.2991-0.0901c-0.0698,0-0.1396,0.02-0.2094,0.0501           C96.5516,67.6902,96.4718,67.8498,96.4718,68.0694z" fill="#FFFFFF"/></g></g><g><path d="M97.1379,67.814c-0.2698-0.1558-0.4889-0.0276-0.4897,0.2826          c-0.0009,0.31,0.2167,0.6869,0.4866,0.8427c0.2698,0.1558,0.4919,0.0328,0.4928-0.2772          C97.6283,68.3518,97.4077,67.9698,97.1379,67.814z" fill="#2A2A5E"/></g></g><g><polygon fill="#3887E5" points="106.0067,63.6506 106.0081,64.1554 105.7579,64.1684 99.0167,68.0605 99.0208,69.6219          106.0121,65.5854 106.0136,65.9587 98.5821,70.2493 98.5751,67.9412        "/></g></g></g></g></g><g><g><path d="M86.7476,75.1513l-0.0027,0.6632c0-0.4913-0.3247-0.9824-0.9742-1.3563      c-0.644-0.3711-1.4899-0.5593-2.3331-0.5593c-0.1092,0-0.221,0.0055-0.3329,0.0109c-0.3084,0.0191-0.614,0.0628-0.906,0.131      c-0.2265,0.0518-0.4421,0.1201-0.6467,0.2047c-0.1555,0.0628-0.3029,0.1336-0.4394,0.2128h-0.0027      c-0.6358,0.3711-0.9551,0.8569-0.9551,1.3426v-0.6685c0.0027-0.4858,0.322-0.9715,0.9578-1.3399      c0.1392-0.0818,0.2865-0.1528,0.4421-0.2156c0.2047-0.0818,0.4202-0.15,0.6468-0.2047c0.292-0.0682,0.5949-0.1119,0.906-0.131      c0.1092-0.0055,0.221-0.0081,0.3329-0.0081c0.8432,0,1.6891,0.1855,2.3331,0.5594      C86.4229,74.1662,86.7476,74.6601,86.7476,75.1513z" fill="#2A2A5E"/><path d="M85.7739,74.211c1.291,0.7454,1.2979,1.9544,0.0153,2.6998c-1.2826,0.7454-3.37,0.7454-4.661,0      c-1.291-0.7454-1.2978-1.9545-0.0152-2.6999C82.3956,73.4657,84.4829,73.4657,85.7739,74.211z" fill="#6B9EF9"/><g><path d="M81.7254,74.9018c-0.1428,0.0828-0.2673,0.1722-0.3753,0.2662       c0.0385-0.2494,0.2199-0.4926,0.5482-0.6829c0.7106-0.4133,1.844-0.428,2.5992-0.0536       C83.5274,74.3098,82.4753,74.4656,81.7254,74.9018z" fill="#FFFFFF"/></g><path d="M87.4035,75.1529l-0.0018,0.6412c-0.0016,0.5822-0.3842,1.1635-1.1485,1.6076      c-1.5385,0.8941-4.0414,0.8941-5.5899,0.0001c-0.7792-0.4499-1.1684-1.0405-1.1667-1.6302l0.0018-0.6412      c-0.0017,0.5897,0.3875,1.1803,1.1667,1.6302c1.5485,0.894,4.0514,0.894,5.5899-0.0001      C87.0193,76.3163,87.4019,75.735,87.4035,75.1529z" fill="#2A2A5E"/><path d="M86.2368,73.5227c1.5485,0.894,1.5566,2.3438,0.0183,3.2378c-1.5385,0.8941-4.0414,0.8941-5.5899,0.0001      c-1.5485-0.894-1.5567-2.3438-0.0182-3.2379C82.1854,72.6286,84.6883,72.6286,86.2368,73.5227z M81.1281,76.4915      c1.291,0.7454,3.3784,0.7453,4.661,0c1.2826-0.7454,1.2758-1.9544-0.0153-2.6998c-1.291-0.7454-3.3783-0.7454-4.6609,0      C79.8304,74.537,79.8371,75.7461,81.1281,76.4915L81.1281,76.4915z" fill="#6262AA"/><path d="M86.809,76.6231c-0.0588-0.0341-0.1401-0.0293-0.23,0.0226c-0.1785,0.1031-0.3227,0.3528-0.3221,0.558      c0.0003,0.1019,0.0362,0.1736,0.0943,0.2073l2.2184,1.2892c-0.058-0.0337-0.094-0.1054-0.0943-0.2073      c-0.0006-0.2052,0.1436-0.4549,0.3221-0.558c0.0898-0.0518,0.1712-0.0567,0.23-0.0226L86.809,76.6231z" fill="#9EB5DF"/></g><g><path d="M87.5007,76.7576c-0.0907-0.0527-0.2163-0.0453-0.3549,0.0348      c-0.2756,0.1591-0.4981,0.5445-0.4972,0.8611c0.0004,0.1573,0.0559,0.268,0.1455,0.32l0.4519,0.2626      c-0.0895-0.052-0.145-0.1627-0.1455-0.3199c-0.0009-0.3166,0.2216-0.7021,0.4972-0.8612      c0.1387-0.08,0.2643-0.0875,0.3549-0.0348L87.5007,76.7576z" fill="#3887E5"/><g><path d="M87.5977,77.055c0.2755-0.1591,0.4995-0.0314,0.5004,0.2852c0.0009,0.3166-0.2216,0.702-0.4972,0.8611       c-0.2756,0.1591-0.4995,0.0314-0.5004-0.2852C87.0996,77.5995,87.3221,77.2141,87.5977,77.055z" fill="#1E72C6"/></g></g><g><path d="M87.955,77.1755c-0.0754-0.0438-0.1798-0.0376-0.2951,0.0289c-0.2291,0.1323-0.4141,0.4527-0.4134,0.716      c0.0004,0.1308,0.0465,0.2228,0.1209,0.266l3.2399,1.8828c-0.0744-0.0433-0.1206-0.1352-0.1209-0.266      c-0.0007-0.2633,0.1843-0.5837,0.4134-0.716c0.1153-0.0665,0.2197-0.0727,0.2951-0.0289L87.955,77.1755z" fill="#3887E5"/><g><path d="M90.8998,79.0872c0.2291-0.1323,0.4153-0.0261,0.4161,0.2371       c0.0007,0.2632-0.1843,0.5837-0.4134,0.7159s-0.4153,0.0261-0.4161-0.2371C90.4857,79.54,90.6707,79.2195,90.8998,79.0872z" fill="#1E72C6"/></g></g></g></g></g></svg>