<?xml version="1.0" standalone="no"?>
<!DOCTYPE svg PUBLIC "-//W3C//DTD SVG 20010904//EN"
 "http://www.w3.org/TR/2001/REC-SVG-20010904/DTD/svg10.dtd">
<svg version="1.0" xmlns="http://www.w3.org/2000/svg"
 width="500.000000pt" height="179.000000pt" viewBox="0 0 500.000000 179.000000"
 preserveAspectRatio="xMidYMid meet">

<g transform="translate(0.000000,179.000000) scale(0.100000,-0.100000)"
fill="#000000" stroke="none">
<path d="M1247 1432 c-9 -10 -114 -182 -235 -382 -120 -201 -236 -392 -257
-424 l-38 -59 72 6 c39 3 75 8 80 12 5 3 52 75 103 160 51 85 107 177 123 204
17 27 54 91 84 142 76 131 94 159 108 159 6 0 31 -33 56 -72 90 -149 147 -247
147 -256 0 -16 -21 -19 -134 -16 -60 2 -117 -1 -127 -7 -19 -10 -62 -83 -54
-91 2 -2 87 -2 187 0 182 3 184 3 206 -20 12 -13 78 -118 146 -234 68 -115
134 -219 145 -232 l20 -22 1160 0 1161 0 5 23 c4 13 5 43 3 68 l-3 44 -1136 3
-1136 2 -28 53 c-36 66 -553 928 -567 945 -15 18 -72 15 -91 -6z"/>
<path d="M2405 1445 c-5 -2 -64 -5 -130 -8 -127 -4 -203 -25 -278 -77 -121
-84 -189 -280 -152 -435 24 -97 68 -177 135 -238 78 -72 148 -96 305 -102 66
-3 162 -7 213 -10 l92 -4 0 69 0 69 -202 3 c-199 3 -204 4 -260 31 -101 50
-153 142 -153 272 1 133 52 217 164 269 38 17 69 21 181 23 l135 3 3 65 c2 37
-1 65 -7 65 -5 0 -15 2 -23 4 -7 3 -17 3 -23 1z"/>
<path d="M3540 1015 l0 -435 335 0 335 0 0 64 c0 61 -1 64 -27 71 -15 3 -133
5 -263 4 l-235 -2 -5 364 -5 364 -67 3 -68 3 0 -436z"/>
<path d="M2815 1433 c-115 -26 -174 -85 -190 -195 -16 -105 32 -206 118 -250
45 -23 177 -36 370 -37 102 -1 149 -14 161 -46 3 -9 6 -41 6 -70 0 -108 -47
-126 -330 -125 -96 1 -181 1 -187 0 -9 0 -13 -20 -13 -66 l0 -66 243 4 c221 3
246 5 287 24 92 43 137 128 127 238 -7 78 -29 133 -65 165 -56 49 -84 55 -302
61 -133 4 -213 10 -227 18 -46 26 -68 106 -44 165 20 51 60 59 285 56 l201 -3
3 67 3 67 -213 -1 c-117 -1 -222 -3 -233 -6z"/>
</g>
</svg>
