<?xml version="1.0" standalone="no"?><!DOCTYPE svg PUBLIC "-//W3C//DTD SVG 1.1//EN" "http://www.w3.org/Graphics/SVG/1.1/DTD/svg11.dtd"><svg t="1622016353327" class="icon" viewBox="0 0 1024 1024" version="1.1" xmlns="http://www.w3.org/2000/svg" p-id="9931" xmlns:xlink="http://www.w3.org/1999/xlink" width="200" height="200"><defs><style type="text/css"></style></defs><path d="M747.813347 654.261442c26.780129-3.762565 59.050574-9.07683 77.599324-35.539659 18.610163-26.559043 12.908997-59.210247 7.871089-88.025191-2.487223-14.339918-5.604953-32.180372-3.087023-40.241843 2.206771-7.062486 14.264175-18.966358 23.963323-28.559056 19.930541-19.652136 44.741362-44.116998 44.741363-77.955519 0-33.869228-24.810821-58.303383-44.741363-77.953472-9.699148-9.564039-21.756552-21.465864-23.963323-28.495597-2.51793-8.094223 0.5998-25.967431 3.087023-40.307349 5.037907-28.806756 10.739073-61.490714-7.871089-87.98425-19.205869-27.46386-53.212252-32.213126-80.538956-36.028916-13.383923-1.842388-30.008402-4.184267-35.770982-8.530255-5.826039-4.405354-13.443289-20.966372-19.017535-33.05653-12.436117-27.021687-26.542666-57.648312-58.057732-68.301407-31.203907-10.440197-60.960516 6.188376-84.983204 19.621429-12.217078 6.810693-27.431106 15.310242-35.044262 15.310242s-22.827184-8.497502-35.044262-15.310242C452.961709 9.509668 423.084321-7.176223 392.040088 3.290586c-31.580573 10.644907-45.687121 41.275626-58.123239 68.301408-5.574246 12.090158-13.191496 28.659365-19.017535 33.05653-5.762579 4.343941-22.387058 6.687867-35.770982 8.530255-27.328751 3.813743-61.335135 8.563009-80.538956 35.994115-18.57741 26.526289-12.87829 59.177494-7.871089 87.953543 2.485176 14.374718 5.602906 32.243832 3.084976 40.32782-2.204724 7.062486-14.264175 18.964311-23.961276 28.528351C149.909399 325.642932 125.098577 350.077087 125.098577 383.946315c0 33.838521 24.810821 58.30543 44.741363 77.955519 9.699148 9.592699 21.756552 21.494523 23.961275 28.526303 2.51793 8.122883-0.5998 25.963337-3.084975 40.307349-5.0072 28.776049-10.708367 61.3945 7.871089 87.92079s50.909267 31.854884 77.705773 35.619496L160.644378 888.144376a31.705446 31.705446 0 0 0 3.242602 33.400442 32.053452 32.053452 0 0 0 31.525301 12.153618l107.210589-19.496556 53.775204 93.4848a32.26635 32.26635 0 0 0 27.994058 16.153646h0.943712a32.34414 32.34414 0 0 0 27.959257-17.809748l127.609915-255.954738a30.522223 30.522223 0 0 0 1.985685-7.408446c1.39612 0.781991 2.847513 1.561935 4.184267 2.31322 23.991982 13.404394 53.934877 30.153746 84.919745 19.590723 31.547819-10.622389 45.621614-41.242873 58.090485-68.268654 1.005125-2.190394 2.13717-4.595734 3.252838-6.960131l83.965797 169.962315-66.657588-12.122911a31.779141 31.779141 0 0 0-33.84671 15.623447l-34.886635 60.73943-36.489513-73.767158a32.297057 32.297057 0 0 0-43.136438-14.624464 31.871261 31.871261 0 0 0-14.739101 42.804808l63.32696 127.978393a32.225408 32.225408 0 0 0 27.926504 17.903914h1.009219a32.34414 32.34414 0 0 0 28.022717-16.153646l53.681037-93.4848 107.085716 19.496556a32.053452 32.053452 0 0 0 34.76381-45.55406zM382.371647 923.763872l-35.074969-60.958469a31.779141 31.779141 0 0 0-33.816003-15.623447l-66.749707 12.122911 83.982174-169.862007c1.101338 2.343927 2.212912 4.708324 3.20166 6.859823 12.468871 27.021687 26.542666 57.646265 58.123239 68.301407a63.519388 63.519388 0 0 0 20.243747 3.275356c20.642931 0 40.096498-9.484203 57.187715-18.833296z m249.05602-254.044797c-5.101367 11.093221-14.610135 31.715681-19.709455 34.186528-5.795333-0.409419-22.798525-8.968334-33.029918-14.685877-19.740161-11.027714-42.170208-23.555951-66.688294-23.555951s-46.948134 12.528237-66.688294 23.555951c-10.235487 5.717543-27.142465 16.405439-32.460825 14.81075-5.668413-2.591625-15.177181-23.214085-20.278548-34.307306-9.791267-21.275484-19.930541-43.24084-38.602117-57.335107-19.175162-14.495497-43.983936-17.996034-65.867408-21.058491-10.83324-1.496428-33.408631-4.6551-36.55502-9.185327-3.494395-4.966258 0.693966-28.962335 2.70831-40.493635 3.873108-22.180301 8.247756-47.335035 1.132045-70.172454-6.960131-22.249902-23.803649-38.870287-40.112875-54.929767-10.235487-10.094238-25.69312-25.371726-25.69312-32.589792s15.45968-22.462801 25.69312-32.548849c16.309226-16.057433 33.162979-32.681911 40.123111-54.960473 7.115711-22.837419 2.741064-48.020813-1.132045-70.205208-2.014344-11.529253-6.202705-35.52533-2.70831-40.53253 3.146389-4.503614 25.72178-7.625438 36.555019-9.15462 21.883472-3.029704 46.692246-6.497487 65.838749-20.966373 18.700235-14.153632 28.839509-36.118988 38.630777-57.365812 5.101367-11.089127 14.577381-31.713634 19.742208-34.211093 0.157627 0 0.345959-0.032754 0.503586-0.032754 6.202705 0 22.608145 9.156667 32.493578 14.685878 19.772915 11.054326 42.170208 23.557998 66.688294 23.557997s46.91538-12.487295 66.688295-23.525244c10.294853-5.717543 28.272463-15.027743 32.493578-14.81075 5.668413 2.624379 15.148521 23.246839 20.245794 34.307306 9.791267 21.244778 19.897787 43.24084 38.630777 57.394472 19.146503 14.466838 43.955277 17.936668 65.838749 20.966373 10.83324 1.529182 33.408631 4.6551 36.587773 9.185326 3.461642 4.968306-0.72672 28.993042-2.741064 40.53253-3.871061 22.215102-8.247756 47.367788-1.132045 70.215444 6.960131 22.245808 23.803649 38.870287 40.123111 54.927719 10.235487 10.094238 25.69312 25.338973 25.69312 32.54885s-15.45968 22.495554-25.69312 32.589792c-16.309226 16.05948-33.162979 32.679864-40.123111 54.958426-7.115711 22.80876-2.739016 47.963494 1.132045 70.143795 2.014344 11.5313 6.202705 35.556036 2.70831 40.557095-3.146389 4.466767-25.691073 7.625438-36.524313 9.121866-21.903943 3.070646-46.722953 6.530241-65.869455 21.029832-18.710471 14.102455-28.849745 36.06781-38.641012 57.343295zM512 159.983616c-124.434867 0-225.692497 100.483827-225.692497 223.952463s101.25763 223.952464 225.692497 223.952464 225.692497-100.48178 225.692497-223.952464-101.25763-223.952464-225.692497-223.952463z m0 383.937225c-88.884972 0-161.208926-71.771237-161.208926-159.974526S423.115028 223.973836 512 223.973836s161.208926 71.76919 161.208926 159.972479-72.323954 159.974526-161.208926 159.974526z" p-id="9932" fill="#BA6E40"></path></svg>