<svg t="1622307695307" class="icon" viewBox="0 0 1024 1024" version="1.1" xmlns="http://www.w3.org/2000/svg" p-id="11652" width="200" height="200"><path d="M730.919988 116.183116l155.236574 0c11.358699 0 22.717398 7.572466 22.717398 18.931165l0 3.786233 0 742.104725c0 15.144932-11.358699 22.717398-22.717398 22.717398l0 0L730.919988 903.722636l0-45.434795 132.518153 0L863.438141 320.640718l-132.518153 0 0-30.289863 132.518153 0 0-132.518153-132.518153 0L730.919988 116.183116 730.919988 116.183116zM730.919988 646.257773 730.919988 646.257773 730.919988 646.257773c15.144932 0 26.503631-3.786233 37.862329-15.144932 7.572466-7.572466 15.144932-22.717398 15.144932-34.076096l0 0 0 0 0 0 0 0c0-15.144932-7.572466-26.503631-15.144932-37.862329l0 0c-11.358699-7.572466-22.717398-15.144932-37.862329-15.144932l0 0 0 0 0 30.289863 0 0 0 0c7.572466 0 11.358699 3.786233 15.144932 7.572466l0 0c3.786233 3.786233 7.572466 7.572466 7.572466 15.144932l0 0 0 0 0 0 0 0c0 3.786233-3.786233 11.358699-7.572466 15.144932s-7.572466 3.786233-15.144932 3.786233l0 0 0 0L730.919988 646.257773 730.919988 646.257773zM730.919988 502.380922 730.919988 502.380922 730.919988 502.380922c15.144932 0 26.503631-7.572466 37.862329-15.144932 7.572466-11.358699 15.144932-22.717398 15.144932-37.862329l0 0 0 0 0 0 0 0c0-11.358699-7.572466-26.503631-15.144932-34.076096l0 0c-11.358699-11.358699-22.717398-15.144932-37.862329-15.144932l0 0 0 0 0 30.289863 0 0 0 0c7.572466 0 11.358699 0 15.144932 3.786233l0 0c3.786233 3.786233 7.572466 11.358699 7.572466 15.144932l0 0 0 0 0 0 0 0c0 7.572466-3.786233 11.358699-7.572466 15.144932s-7.572466 7.572466-15.144932 7.572466l0 0 0 0L730.919988 502.380922zM587.042113 116.183116l143.877875 0 0 41.648562-3.786233 0 0 37.862329c0 11.358699-11.358699 22.717398-22.717398 22.717398s-22.717398-11.358699-22.717398-22.717398l0-37.862329-94.655823 0L587.043137 116.183116 587.042113 116.183116zM730.919988 903.722636 587.042113 903.722636l0-45.434795 143.877875 0L730.919988 903.722636 730.919988 903.722636zM730.919988 290.350854l0 30.289863L587.042113 320.640718l0-30.289863L730.919988 290.350854 730.919988 290.350854zM730.919988 400.151609l0 30.289863 0 0 0 0c-3.786233 0-11.358699 0-11.358699 3.786233-3.786233 3.786233-7.572466 11.358699-7.572466 15.144932l0 0 0 0 0 0 0 0c0 7.572466 3.786233 11.358699 7.572466 15.144932 0 3.786233 7.572466 7.572466 11.358699 7.572466l0 0 0 0 0 30.289863 0 0 0 0c-11.358699 0-26.503631-7.572466-34.076096-15.144932-7.572466-11.358699-15.144932-22.717398-15.144932-37.862329l0 0 0 0 0 0 0 0c0-11.358699 7.572466-26.503631 15.144932-34.076096C704.416358 403.937842 719.561289 400.151609 730.919988 400.151609L730.919988 400.151609 730.919988 400.151609 730.919988 400.151609zM730.919988 544.029484l0 30.289863 0 0 0 0c-3.786233 0-11.358699 3.786233-11.358699 7.572466-3.786233 3.786233-7.572466 7.572466-7.572466 15.144932l0 0 0 0 0 0 0 0c0 3.786233 3.786233 11.358699 7.572466 15.144932 0 3.786233 7.572466 3.786233 11.358699 3.786233l0 0 0 0 0 30.289863 0 0 0 0c-11.358699 0-26.503631-3.786233-34.076096-15.144932-7.572466-7.572466-15.144932-22.717398-15.144932-34.076096l0 0 0 0 0 0 0 0c0-15.144932 7.572466-26.503631 15.144932-37.862329C704.416358 551.60195 719.561289 544.029484 730.919988 544.029484L730.919988 544.029484 730.919988 544.029484 730.919988 544.029484zM587.042113 790.135648l0-26.503631 0 0 0 0c3.786233 0 11.358699-3.786233 15.144932-7.572466s3.786233-7.572466 3.786233-15.144932l0 0 0 0 0 0 0 0c0-3.786233 0-11.358699-3.786233-15.144932l0 0c-3.786233-3.786233-11.358699-3.786233-15.144932-3.786233l0 0 0 0 0-30.289863 0 0 0 0c11.358699 0 26.503631 3.786233 34.076096 15.144932l0 0c11.358699 7.572466 15.144932 18.931165 15.144932 34.076096l0 0 0 0 0 0 0 0c0 15.144932-3.786233 26.503631-15.144932 37.862329C613.545744 786.349415 598.400812 790.135648 587.042113 790.135648L587.042113 790.135648 587.042113 790.135648 587.042113 790.135648zM587.042113 646.257773l0-30.289863 0 0 0 0c3.786233 0 11.358699 0 15.144932-3.786233l0 0c3.786233-3.786233 3.786233-11.358699 3.786233-15.144932l0 0 0 0 0 0 0 0c0-7.572466 0-11.358699-3.786233-15.144932l0 0c-3.786233-3.786233-11.358699-7.572466-15.144932-7.572466l0 0 0 0 0-30.289863 0 0 0 0c11.358699 0 26.503631 7.572466 34.076096 15.144932l0 0c11.358699 11.358699 15.144932 22.717398 15.144932 37.862329l0 0 0 0 0 0 0 0c0 11.358699-3.786233 26.503631-15.144932 34.076096l0 0C613.545744 642.47154 598.400812 646.257773 587.042113 646.257773L587.042113 646.257773 587.042113 646.257773 587.042113 646.257773zM587.042113 502.380922l0-30.289863 0 0 0 0c3.786233 0 11.358699-3.786233 15.144932-7.572466l0 0c3.786233-3.786233 3.786233-7.572466 3.786233-15.144932l0 0 0 0 0 0 0 0c0-3.786233 0-11.358699-3.786233-15.144932l0 0c-3.786233-3.786233-11.358699-3.786233-15.144932-3.786233l0 0 0 0 0-30.289863 0 0 0 0c11.358699 0 26.503631 3.786233 34.076096 15.144932l0 0c11.358699 7.572466 15.144932 22.717398 15.144932 34.076096l0 0 0 0 0 0 0 0c0 15.144932-3.786233 26.503631-15.144932 37.862329l0 0C613.545744 494.808456 598.400812 502.380922 587.042113 502.380922L587.042113 502.380922 587.042113 502.380922zM511.317455 116.183116l75.724659 0 0 41.648562-53.007261 0 0 37.862329c0 11.358699-7.572466 22.717398-22.717398 22.717398L511.317455 116.183116 511.317455 116.183116zM587.042113 903.722636l-75.724659 0 0-45.434795 75.724659 0L587.042113 903.722636 587.042113 903.722636zM587.042113 290.350854l0 30.289863-75.724659 0 0-30.289863L587.042113 290.350854 587.042113 290.350854zM587.042113 400.151609l0 30.289863 0 0 0 0c-7.572466 0-11.358699 0-15.144932 3.786233s-7.572466 11.358699-7.572466 15.144932l0 0 0 0 0 0 0 0c0 7.572466 3.786233 11.358699 7.572466 15.144932l0 0c3.786233 3.786233 7.572466 7.572466 15.144932 7.572466l0 0 0 0 0 30.289863 0 0 0 0c-15.144932 0-26.503631-7.572466-37.862329-15.144932l0 0c-7.572466-11.358699-15.144932-22.717398-15.144932-37.862329l0 0 0 0 0 0 0 0c0-11.358699 7.572466-26.503631 15.144932-34.076096C560.538483 403.937842 571.897182 400.151609 587.042113 400.151609L587.042113 400.151609 587.042113 400.151609 587.042113 400.151609zM587.042113 544.029484l0 30.289863 0 0 0 0c-7.572466 0-11.358699 3.786233-15.144932 7.572466s-7.572466 7.572466-7.572466 15.144932l0 0 0 0 0 0 0 0c0 3.786233 3.786233 11.358699 7.572466 15.144932l0 0c3.786233 3.786233 7.572466 3.786233 15.144932 3.786233l0 0 0 0 0 30.289863 0 0 0 0c-15.144932 0-26.503631-3.786233-37.862329-15.144932l0 0c-7.572466-7.572466-15.144932-22.717398-15.144932-34.076096l0 0 0 0 0 0 0 0c0-15.144932 7.572466-26.503631 15.144932-37.862329C560.538483 551.60195 571.897182 544.029484 587.042113 544.029484L587.042113 544.029484 587.042113 544.029484 587.042113 544.029484zM587.042113 691.693592l0 30.289863 0 0 0 0c-7.572466 0-11.358699 0-15.144932 3.786233s-7.572466 11.358699-7.572466 15.144932l0 0 0 0 0 0 0 0c0 7.572466 3.786233 11.358699 7.572466 15.144932s7.572466 7.572466 15.144932 7.572466l0 0 0 0 0 26.503631 0 0 0 0c-15.144932 0-26.503631-3.786233-37.862329-15.144932-7.572466-7.572466-15.144932-18.931165-15.144932-34.076096l0 0 0 0 0 0 0 0c0-15.144932 7.572466-26.503631 15.144932-34.076096C560.538483 695.479825 571.897182 691.693592 587.042113 691.693592L587.042113 691.693592 587.042113 691.693592zM439.379029 116.183116l71.938426 0 0 102.228289 0 0c-11.358699 0-18.931165-11.358699-18.931165-22.717398l0-37.862329-53.007261 0L439.379029 116.183116 439.379029 116.183116zM511.317455 903.722636l-71.938426 0 0-45.434795 71.938426 0L511.317455 903.722636 511.317455 903.722636zM511.317455 290.350854l0 30.289863-71.938426 0 0-30.289863L511.317455 290.350854 511.317455 290.350854zM439.379029 790.135648l0-26.503631 0 0 0 0c7.572466 0 11.358699-3.786233 15.144932-7.572466l0 0c3.786233-3.786233 7.572466-7.572466 7.572466-15.144932l0 0 0 0 0 0 0 0c0-3.786233-3.786233-11.358699-7.572466-15.144932s-7.572466-3.786233-15.144932-3.786233l0 0 0 0 0-30.289863 0 0 0 0c15.144932 0 26.503631 3.786233 37.862329 15.144932 7.572466 7.572466 11.358699 18.931165 11.358699 34.076096l0 0 0 0 0 0 0 0c0 15.144932-3.786233 26.503631-11.358699 37.862329l0 0C465.88266 786.349415 454.523961 790.135648 439.379029 790.135648L439.379029 790.135648 439.379029 790.135648 439.379029 790.135648zM439.379029 646.257773l0-30.289863 0 0 0 0c7.572466 0 11.358699 0 15.144932-3.786233s7.572466-11.358699 7.572466-15.144932l0 0 0 0 0 0 0 0c0-7.572466-3.786233-11.358699-7.572466-15.144932s-7.572466-7.572466-15.144932-7.572466l0 0 0 0 0-30.289863 0 0 0 0c15.144932 0 26.503631 7.572466 37.862329 15.144932 7.572466 11.358699 11.358699 22.717398 11.358699 37.862329l0 0 0 0 0 0 0 0c0 11.358699-3.786233 26.503631-11.358699 34.076096C465.88266 642.47154 454.523961 646.257773 439.379029 646.257773L439.379029 646.257773 439.379029 646.257773 439.379029 646.257773zM439.379029 502.380922l0-30.289863 0 0 0 0c7.572466 0 11.358699-3.786233 15.144932-7.572466s7.572466-7.572466 7.572466-15.144932l0 0 0 0 0 0 0 0c0-3.786233-3.786233-11.358699-7.572466-15.144932s-7.572466-3.786233-15.144932-3.786233l0 0 0 0 0-30.289863 0 0 0 0c15.144932 0 26.503631 3.786233 37.862329 15.144932 7.572466 7.572466 11.358699 22.717398 11.358699 34.076096l0 0 0 0 0 0 0 0c0 15.144932-3.786233 26.503631-11.358699 37.862329C465.88266 494.808456 454.523961 502.380922 439.379029 502.380922L439.379029 502.380922 439.379029 502.380922zM295.501154 116.183116l143.877875 0 0 41.648562-94.655823 0 0 37.862329c0 11.358699-11.358699 22.717398-22.717398 22.717398-11.358699 0-22.717398-11.358699-22.717398-22.717398l0-37.862329-3.786233 0L295.502178 116.183116 295.501154 116.183116zM439.379029 903.722636 295.501154 903.722636l0-45.434795 143.877875 0L439.379029 903.722636 439.379029 903.722636zM439.379029 290.350854l0 30.289863L295.501154 320.640718l0-30.289863L439.379029 290.350854 439.379029 290.350854zM439.379029 400.151609l0 30.289863 0 0 0 0c-3.786233 0-11.358699 0-15.144932 3.786233s-3.786233 11.358699-3.786233 15.144932l0 0 0 0 0 0 0 0c0 7.572466 0 11.358699 3.786233 15.144932s11.358699 7.572466 15.144932 7.572466l0 0 0 0 0 30.289863 0 0 0 0c-15.144932 0-26.503631-7.572466-34.076096-15.144932-11.358699-11.358699-15.144932-22.717398-15.144932-37.862329l0 0 0 0 0 0 0 0c0-11.358699 3.786233-26.503631 15.144932-34.076096C412.875398 403.937842 424.234097 400.151609 439.379029 400.151609L439.379029 400.151609 439.379029 400.151609 439.379029 400.151609zM439.379029 544.029484l0 30.289863 0 0 0 0c-3.786233 0-11.358699 3.786233-15.144932 7.572466s-3.786233 7.572466-3.786233 15.144932l0 0 0 0 0 0 0 0c0 3.786233 0 11.358699 3.786233 15.144932s11.358699 3.786233 15.144932 3.786233l0 0 0 0 0 30.289863 0 0 0 0c-15.144932 0-26.503631-3.786233-34.076096-15.144932-11.358699-7.572466-15.144932-22.717398-15.144932-34.076096l0 0 0 0 0 0 0 0c0-15.144932 3.786233-26.503631 15.144932-37.862329C412.875398 551.60195 424.234097 544.029484 439.379029 544.029484L439.379029 544.029484 439.379029 544.029484 439.379029 544.029484zM439.379029 691.693592l0 30.289863 0 0 0 0c-3.786233 0-11.358699 0-15.144932 3.786233s-3.786233 11.358699-3.786233 15.144932l0 0 0 0 0 0 0 0c0 7.572466 0 11.358699 3.786233 15.144932s11.358699 7.572466 15.144932 7.572466l0 0 0 0 0 26.503631 0 0 0 0c-15.144932 0-26.503631-3.786233-34.076096-15.144932-11.358699-7.572466-15.144932-18.931165-15.144932-34.076096l0 0 0 0 0 0 0 0c0-15.144932 3.786233-26.503631 15.144932-34.076096C412.875398 695.479825 424.234097 691.693592 439.379029 691.693592L439.379029 691.693592 439.379029 691.693592 439.379029 691.693592zM295.501154 790.135648l0-26.503631 0 0 0 0c3.786233 0 7.572466-3.786233 11.358699-7.572466s7.572466-7.572466 7.572466-15.144932l0 0 0 0 0 0 0 0c0-3.786233-3.786233-11.358699-7.572466-15.144932l0 0c-3.786233-3.786233-7.572466-3.786233-11.358699-3.786233l0 0 0 0 0-30.289863 0 0 0 0c11.358699 0 26.503631 3.786233 34.076096 15.144932l0 0c7.572466 7.572466 15.144932 18.931165 15.144932 34.076096l0 0 0 0 0 0 0 0c0 15.144932-7.572466 26.503631-15.144932 37.862329C322.004785 786.349415 306.859853 790.135648 295.501154 790.135648L295.501154 790.135648 295.501154 790.135648 295.501154 790.135648zM295.501154 646.257773l0-30.289863 0 0 0 0c3.786233 0 7.572466 0 11.358699-3.786233l0 0c3.786233-3.786233 7.572466-11.358699 7.572466-15.144932l0 0 0 0 0 0 0 0c0-7.572466-3.786233-11.358699-7.572466-15.144932l0 0c-3.786233-3.786233-7.572466-7.572466-11.358699-7.572466l0 0 0 0 0-30.289863 0 0 0 0c11.358699 0 26.503631 7.572466 34.076096 15.144932l0 0c7.572466 11.358699 15.144932 22.717398 15.144932 37.862329l0 0 0 0 0 0 0 0c0 11.358699-7.572466 26.503631-15.144932 34.076096l0 0C322.004785 642.47154 306.859853 646.257773 295.501154 646.257773L295.501154 646.257773 295.501154 646.257773zM140.265604 116.183116l155.236574 0 0 41.648562-132.518153 0 0 132.518153 132.518153 0 0 30.289863-132.518153 0 0 537.647123 132.518153 0 0 45.434795L140.265604 903.721613c-11.358699 0-22.717398-7.572466-22.717398-22.717398L117.548206 135.114281C117.547183 123.755582 128.906905 116.183116 140.265604 116.183116L140.265604 116.183116zM295.501154 544.029484l-3.786233 0 0 0c-11.358699 0-22.717398 7.572466-34.076096 15.144932-7.572466 11.358699-15.144932 22.717398-15.144932 37.862329l0 0 0 0 0 0 0 0c0 11.358699 7.572466 26.503631 15.144932 34.076096l0 0c7.572466 11.358699 22.717398 15.144932 37.862329 15.144932l0 0 0 0 0-30.289863 0 0 0 0c-7.572466 0-11.358699 0-15.144932-3.786233l0 0c-3.786233-3.786233-7.572466-11.358699-7.572466-15.144932l0 0 0 0 0 0 0 0c0-7.572466 3.786233-11.358699 7.572466-15.144932s7.572466-7.572466 11.358699-7.572466l0 0 3.786233 0L295.501154 544.029484 295.501154 544.029484zM295.501154 691.693592l-3.786233 0 0 0c-11.358699 0-22.717398 3.786233-34.076096 15.144932-7.572466 7.572466-15.144932 18.931165-15.144932 34.076096l0 0 0 0 0 0 0 0c0 15.144932 7.572466 26.503631 15.144932 34.076096 7.572466 11.358699 22.717398 15.144932 37.862329 15.144932l0 0 0 0 0-26.503631 0 0 0 0c-7.572466 0-11.358699-3.786233-15.144932-7.572466s-7.572466-7.572466-7.572466-15.144932l0 0 0 0 0 0 0 0c0-3.786233 3.786233-11.358699 7.572466-15.144932s7.572466-3.786233 11.358699-3.786233l0 0 3.786233 0L295.501154 691.693592z" p-id="11653" fill="#8a8a8a"></path></svg>