<svg t="1615000930563" class="icon" viewBox="0 0 1940 1024" version="1.1" xmlns="http://www.w3.org/2000/svg" p-id="8733" width="200" height="200"><path d="M1481.655 200.979c0 0.012 0 0.026 0 0.040 0 10.092-4.099 19.227-10.723 25.83l-622.042 622.042c-6.621 6.623-15.767 10.719-25.871 10.719s-19.252-4.097-25.87-10.719l-622.042-622.042c-6.621-6.622-10.716-15.767-10.716-25.871 0-20.206 16.38-36.587 36.587-36.587 10.103 0 19.251 4.096 25.871 10.717l596.17 596.17 596.17-596.17c6.622-6.62 15.768-10.713 25.871-10.713 20.207 0 36.589 16.378 36.593 36.584z" p-id="8734" fill="#e6e6e6"></path></svg>