<svg t="1621770604944" class="icon" viewBox="0 0 1024 1024" version="1.1" xmlns="http://www.w3.org/2000/svg" p-id="12457" width="200" height="200"><path d="M409.6 71.68c130.06848 0 235.52 105.45152 235.52 235.52 0 81.53088-41.43104 153.3952-104.38656 195.66592a348.85632 348.85632 0 0 1 215.69536 237.19936l100.6592-174.3872a30.72 30.72 0 1 1 53.20704 30.72L768 842.8544V921.6a30.72 30.72 0 0 1-61.29664 2.94912L706.56 921.6v-92.16c0-158.35136-128.36864-286.72-286.72-286.72-156.22144 0-283.2384 124.928-286.65856 280.30976L133.12 829.44V921.6a30.72 30.72 0 0 1-61.29664 2.94912L71.68 921.6v-92.16c0-144.95744 88.576-269.2096 214.56896-321.59744A235.27424 235.27424 0 0 1 174.08 307.2C174.08 177.13152 279.53152 71.68 409.6 71.68z m0 61.44a174.08 174.08 0 1 0 0 348.16 174.08 174.08 0 0 0 0-348.16zM931.84 307.2a30.72 30.72 0 0 1 0 61.44h-102.4a30.72 30.72 0 0 1 0-61.44h102.4z m0-143.36a30.72 30.72 0 0 1 0 61.44h-184.32a30.72 30.72 0 0 1 0-61.44h184.32z" fill="#515151" p-id="12458"></path></svg>