<svg t="1621770978385" class="icon" viewBox="0 0 1024 1024" version="1.1" xmlns="http://www.w3.org/2000/svg" p-id="14281" width="200" height="200"><path d="M692.4 565.2V202.6c0-22-18-40-40-40H139.6c-22 0-40 18-40 40v362.6c0 22 18 40 40 40h13.2v117.6c0 16.2 18.4 25.8 31.6 16.2l188.4-134h279.8c22 0.2 39.8-17.8 39.8-39.8z m-56-36c0 11-9 20-20 20H361.2c-4.2 0-8.2 1.2-11.6 3.8l-140.8 100.2v-83.8c0-11-9-20-20-20h-13.2c-11 0-20-9-20-20V238.6c0-11 9-20 20-20h441c11 0 20 9 20 20v290.6z" fill="#515151" p-id="14282"></path><path d="M884.4 302.6h-126.2c-15.4 0-28 12.6-28 28s12.6 28 28 28h90.2c11 0 20 9 20 20v256.6c0 11-9 20-20 20h-13.2c-11 0-20 9-20 20v83.8l-140.8-100.2c-3.4-2.4-7.4-3.8-11.6-3.8H490c-15.4 0-28 12.6-28 28s12.6 28 28 28h161.2l188.4 134c13.2 9.4 31.6 0 31.6-16.2v-117.6h13.2c22 0 40-18 40-40V342.6c0-22.2-17.8-40-40-40z" fill="#515151" p-id="14283"></path></svg>