<svg height="352" width="626" xmlns="http://www.w3.org/2000/svg"><g fill="none" fill-rule="evenodd"><path d="m0 352h626v-352h-626z" fill="none"/><g stroke-width="2"><path d="m471.6812 185.6001-40.879-23.607c-4-2.31-3.999-8.082 0-10.392l98.39-56.805c4-2.31 4-8.083 0-10.393l-31.613-18.252c-3.993-2.305-4.002-8.065-.017-10.383l18.216-10.691m-372.8969 253.9009 40.12-23.29c3.716-2.157 8.303-2.163 12.025-.014l37.866 21.863c3.713 2.143 8.288 2.143 12 0l77.139-44.537 44.132-25.479c3.672-2.12 8.191-2.145 11.886-.065l38.111 21.453c3.695 2.08 8.214 2.055 11.886-.065l26.705-15.418" stroke="#e5e6e8"/><path d="m89.3716 271.9263 27.115 15.776c3.718 2.164 8.31 2.172 12.035.021l54.488-31.459c3.713-2.143 8.287-2.143 12 0l4.83 2.789c3.723 2.149 8.313 2.143 12.03-.018l52.08-30.27c3.689-2.144 3.665-7.48-.043-9.591-3.714-2.114-3.73-7.462-.029-9.599l201.804-116.512c3.712-2.143 8.287-2.143 12 0l71.138 41.072c3.713 2.144 8.287 2.144 12 0l10.242-5.913" stroke="#ff6f00"/><path d="m139.5054 166.1812-24.325 14.388c-3.934 2.327-3.925 8.022.015 10.338l34.65 20.353c3.724 2.188 8.337 2.206 12.077.046l38.475-22.214c3.739-2.159 8.35-2.142 12.074.043l43.332 25.428" stroke="#425066"/><path d="m172.4419 147.7651 57.368-33.122c4.018-2.319 3.995-8.128-.042-10.416l-15.313-8.679c-4.036-2.288-4.06-8.096-.041-10.416l51.735-29.869c3.712-2.144 8.287-2.144 12 0l71.138 41.072c3.713 2.144 8.287 2.144 12 0l77.139-44.536" stroke="#e5e6e8"/></g><path d="m442.4258 51.7993c0-2.209-1.791-4-4-4s-4 1.791-4 4 1.791 4 4 4 4-1.791 4-4" fill="#f5f6f7"/><path d="m442.4258 51.7993c0-2.209-1.791-4-4-4s-4 1.791-4 4 1.791 4 4 4 4-1.791 4-4z" stroke="#e5e6e8" stroke-width="2"/><path d="m458.7515 233.6001c0-2.209-1.791-4-4-4s-4 1.791-4 4 1.791 4 4 4 4-1.791 4-4" fill="#e5e6e8"/><path d="m458.7515 233.6001c0-2.209-1.791-4-4-4s-4 1.791-4 4 1.791 4 4 4 4-1.791 4-4z" stroke="#e5e6e8" stroke-width="2"/><path d="m93.3716 271.9263c0-2.209-1.791-4-4-4s-4 1.791-4 4 1.791 4 4 4 4-1.791 4-4" fill="#ff6f00"/><path d="m93.3716 271.9263c0-2.209-1.791-4-4-4s-4 1.791-4 4 1.791 4 4 4 4-1.791 4-4z" stroke="#ff6f00" stroke-width="2"/><path d="m143.4346 301.0005c0-2.209-1.791-4-4-4s-4 1.791-4 4 1.791 4 4 4 4-1.791 4-4" fill="#fff"/><path d="m143.4346 301.0005c0-2.209-1.791-4-4-4s-4 1.791-4 4 1.791 4 4 4 4-1.791 4-4zm428.0132-230.6011-43.766-25.268c-3.678-2.124-8.205-2.145-11.903-.055l-11.149 6.3" stroke="#e5e6e8" stroke-width="2"/><path d="m475.6812 185.6001c0-2.209-1.791-4-4-4s-4 1.791-4 4 1.791 4 4 4 4-1.791 4-4" fill="#f5f6f7"/><path d="m475.6812 185.6001c0-2.209-1.791-4-4-4s-4 1.791-4 4 1.791 4 4 4 4-1.791 4-4z" stroke="#e5e6e8" stroke-width="2"/><path d="m575.4478 70.3994c0-2.209-1.791-4-4-4s-4 1.791-4 4 1.791 4 4 4 4-1.791 4-4" fill="#e5e6e8"/><path d="m575.4478 70.3994c0-2.209-1.791-4-4-4s-4 1.791-4 4 1.791 4 4 4 4-1.791 4-4z" stroke="#e5e6e8" stroke-width="2"/><path d="m176.4419 147.7651c0-2.209-1.791-4-4-4s-4 1.791-4 4 1.791 4 4 4 4-1.791 4-4" fill="#e5e6e8"/><path d="m176.4419 147.7651c0-2.209-1.791-4-4-4s-4 1.791-4 4 1.791 4 4 4 4-1.791 4-4z" stroke="#e5e6e8" stroke-width="2"/><path d="m575.0615 128.2227c0-2.209-1.791-4-4-4s-4 1.791-4 4 1.791 4 4 4 4-1.791 4-4" fill="#f5f6f7"/><path d="m575.0615 128.2227c0-2.209-1.791-4-4-4s-4 1.791-4 4 1.791 4 4 4 4-1.791 4-4z" stroke="#ff6f00" stroke-width="2"/><path d="m177.2075 90.0767c0-2.209-1.791-4-4-4s-4 1.791-4 4 1.791 4 4 4 4-1.791 4-4m-33.7021 76.1045c0-2.209-1.791-4-4-4s-4 1.791-4 4 1.791 4 4 4 4-1.791 4-4" fill="#f5f6f7"/><path d="m143.5054 166.1812c0-2.209-1.791-4-4-4s-4 1.791-4 4 1.791 4 4 4 4-1.791 4-4z" stroke="#425066" stroke-width="2"/><path d="m398.9819 113.8633v52.318l8.496-4.905v-52.318z" fill="#3a485f"/><path d="m362.1685 82.7993-8.495 4.905 45.308 26.159 8.496-4.905z" fill="#f8f9fa"/><path d="m353.6733 87.7041v52.318l45.309 26.159v-52.318z" fill="#ced0d1"/><path d="m367.8325 128.5776c0 1.806 1.268 4.002 2.832 4.905s2.832.171 2.832-1.635-1.268-4.002-2.832-4.905-2.832-.171-2.832 1.635" fill="#e5e6e8"/><path d="m379.1597 135.1172c0 1.806 1.268 4.002 2.832 4.905s2.832.171 2.832-1.635-1.268-4.002-2.832-4.905-2.832-.171-2.832 1.635m-11.3272-19.6192c0 1.806 1.268 4.002 2.832 4.905s2.832.171 2.832-1.635-1.268-4.002-2.832-4.905-2.832-.171-2.832 1.635" fill="#697587"/><path d="m379.1597 122.0381c0 1.806 1.268 4.001 2.832 4.905 1.564.903 2.832.171 2.832-1.635s-1.268-4.002-2.832-4.905-2.832-.171-2.832 1.635" fill="#e5e6e8"/><path d="m381.9912 136.7524-6.422 3.708c-3.036 1.752-4.905 4.991-4.905 8.495v14.898c0 3.509-1.875 6.751-4.916 8.502l-37.562 21.622m42.4779-76.8446-6.422 3.708c-3.036 1.752-6.775 1.752-9.81 0l-12.843-7.415a9.8119 9.8119 0 0 0 -9.81 0l-37.574 21.694" stroke="#697587" stroke-linecap="round" stroke-linejoin="round" stroke-width="2"/><path d="m353.6655 140.0269v78.477l8.495-4.905v-78.477z" fill="#3a485f"/><path d="m294.1978 95.8833-8.496 4.905 67.964 39.239 8.495-4.905z" fill="#f8f9fa"/><path d="m285.7021 100.7881v78.477l67.963 39.238v-78.476z" fill="#ced0d1"/><path d="m299.8613 167.8203c0 1.806 1.268 4.002 2.832 4.905s2.832.171 2.832-1.635-1.268-4.002-2.832-4.905-2.832-.171-2.832 1.635m11.3272 6.5401c0 1.806 1.268 4.001 2.832 4.905 1.564.903 2.832.171 2.832-1.635s-1.268-4.002-2.832-4.905-2.832-.171-2.832 1.635m11.3271 6.5395c0 1.806 1.268 4.002 2.832 4.905s2.832.171 2.832-1.635-1.268-4.002-2.832-4.905-2.832-.171-2.832 1.635" fill="#e5e6e8"/><path d="m333.8428 187.4395c0 1.806 1.268 4.002 2.832 4.905s2.832.171 2.832-1.635-1.268-4.002-2.832-4.905-2.832-.171-2.832 1.635m-33.9815-32.6988c0 1.806 1.268 4.002 2.832 4.905s2.832.171 2.832-1.635-1.268-4.002-2.832-4.905-2.832-.171-2.832 1.635" fill="#697587"/><path d="m311.1885 161.2808c0 1.806 1.268 4.002 2.832 4.905s2.832.171 2.832-1.635-1.268-4.002-2.832-4.905-2.832-.171-2.832 1.635m11.3271 6.5395c0 1.806 1.268 4.002 2.832 4.905s2.832.171 2.832-1.635-1.268-4.002-2.832-4.905-2.832-.171-2.832 1.635m11.3272 6.5401c0 1.806 1.268 4.002 2.832 4.905s2.832.171 2.832-1.635-1.268-4.002-2.832-4.905-2.832-.171-2.832 1.635" fill="#e5e6e8"/><path d="m299.8613 141.6616c0 1.806 1.268 4.002 2.832 4.905s2.832.171 2.832-1.635-1.268-4.002-2.832-4.905-2.832-.171-2.832 1.635" fill="#697587"/><path d="m311.1885 148.2012c0 1.806 1.268 4.002 2.832 4.905s2.832.171 2.832-1.635-1.268-4.002-2.832-4.905-2.832-.171-2.832 1.635m11.3271 6.54c0 1.806 1.268 4.001 2.832 4.905 1.564.903 2.832.171 2.832-1.635s-1.268-4.002-2.832-4.905-2.832-.171-2.832 1.635m11.3272 6.5396c0 1.806 1.268 4.002 2.832 4.905s2.832.171 2.832-1.635-1.268-4.002-2.832-4.905-2.832-.171-2.832 1.635" fill="#e5e6e8"/><path d="m299.8613 128.582c0 1.806 1.268 4.002 2.832 4.905s2.832.171 2.832-1.635-1.268-4.002-2.832-4.905-2.832-.171-2.832 1.635" fill="#697587"/><path d="m311.1885 135.1221c0 1.806 1.268 4.001 2.832 4.905 1.564.903 2.832.171 2.832-1.635s-1.268-4.002-2.832-4.905-2.832-.171-2.832 1.635" fill="#e5e6e8"/><path d="m322.5156 141.6616c0 1.806 1.268 4.002 2.832 4.905s2.832.171 2.832-1.635-1.268-4.002-2.832-4.905-2.832-.171-2.832 1.635" fill="#697587"/><path d="m333.8428 148.2012c0 1.806 1.268 4.002 2.832 4.905s2.832.171 2.832-1.635-1.268-4.002-2.832-4.905-2.832-.171-2.832 1.635" fill="#e5e6e8"/><path d="m302.6929 130.2183-6.422 3.708c-3.036 1.752-6.775 1.752-9.81 0l-12.843-7.415a9.8119 9.8119 0 0 0 -9.81 0l-37.574 21.694m31.4321 21.0896 45.027-25.941-6.423 3.708a9.81 9.81 0 0 1 -9.809 0l-1.522-.879a9.8096 9.8096 0 0 0 -9.801-.004l-40.127 23.116m101.9451 19.6177-6.422 3.708c-3.036 1.752-4.905 4.991-4.905 8.496v14.897c0 3.509-1.875 6.751-4.916 8.502l-37.562 21.622m7.7566-82.9296 11.327-6.591m-9.5828 58.0764 44.304-25.781m-54.8709 5.5207 27.031-15.606c3.034-1.752 4.905-4.991 4.905-8.496v-14.843c0-3.498 1.862-6.732 4.889-8.487l6.438-3.732" stroke="#697587" stroke-linecap="round" stroke-linejoin="round" stroke-width="2"/><path d="m297.311 172.5649v104.636l8.495-4.905v-104.636z" fill="#3a485f"/><path d="m215.189 115.3423-8.496 4.905 90.618 52.318 8.495-4.905z" fill="#f8f9fa"/><path d="m206.6934 120.2471v104.635l90.618 52.319v-104.636z" fill="#ced0d1"/><path d="m220.8525 213.438c0 1.806 1.268 4.002 2.832 4.905s2.832.171 2.832-1.635-1.268-4.002-2.832-4.905-2.832-.171-2.832 1.635m11.3272 6.54c0 1.806 1.268 4.001 2.832 4.905 1.564.903 2.832.171 2.832-1.635s-1.268-4.002-2.832-4.905-2.832-.171-2.832 1.635m11.3271 6.5396c0 1.806 1.268 4.002 2.832 4.905s2.832.171 2.832-1.635-1.268-4.002-2.832-4.905-2.832-.171-2.832 1.635m11.3272 6.5395c0 1.806 1.268 4.002 2.832 4.905s2.832.171 2.832-1.635-1.268-4.002-2.832-4.905-2.832-.171-2.832 1.635m11.3271 6.5401c0 1.806 1.268 4.002 2.832 4.905s2.832.171 2.832-1.635-1.268-4.002-2.832-4.905-2.832-.171-2.832 1.635" fill="#e5e6e8"/><path d="m277.4883 246.1367c0 1.806 1.268 4.002 2.832 4.905s2.832.171 2.832-1.635-1.268-4.002-2.832-4.905-2.832-.171-2.832 1.635" fill="#697587"/><path d="m220.8525 200.3584c0 1.806 1.268 4.002 2.832 4.905s2.832.171 2.832-1.635-1.268-4.002-2.832-4.905-2.832-.171-2.832 1.635m11.3272 6.54c0 1.806 1.268 4.002 2.832 4.905s2.832.171 2.832-1.635-1.268-4.002-2.832-4.905-2.832-.171-2.832 1.635m11.3271 6.5396c0 1.806 1.268 4.002 2.832 4.905s2.832.171 2.832-1.635-1.268-4.002-2.832-4.905-2.832-.171-2.832 1.635m11.3272 6.54c0 1.806 1.268 4.001 2.832 4.905 1.564.903 2.832.171 2.832-1.635s-1.268-4.002-2.832-4.905-2.832-.171-2.832 1.635m11.3271 6.5396c0 1.806 1.268 4.002 2.832 4.905s2.832.171 2.832-1.635-1.268-4.002-2.832-4.905-2.832-.171-2.832 1.635m11.3272 6.54c0 1.806 1.268 4.001 2.832 4.905 1.564.903 2.832.171 2.832-1.635s-1.268-4.002-2.832-4.905-2.832-.171-2.832 1.635m-56.6358-45.7783c0 1.806 1.268 4.002 2.832 4.905s2.832.171 2.832-1.635-1.268-4.002-2.832-4.905-2.832-.171-2.832 1.635" fill="#e5e6e8"/><path d="m232.1797 193.8188c0 1.806 1.268 4.002 2.832 4.905s2.832.171 2.832-1.635-1.268-4.002-2.832-4.905-2.832-.171-2.832 1.635" fill="#697587"/><path d="m243.5068 200.3589c0 1.806 1.268 4.001 2.832 4.905 1.564.903 2.832.171 2.832-1.635s-1.268-4.002-2.832-4.905-2.832-.171-2.832 1.635" fill="#e5e6e8"/><path d="m254.834 206.8984c0 1.806 1.268 4.002 2.832 4.905s2.832.171 2.832-1.635-1.268-4.002-2.832-4.905-2.832-.171-2.832 1.635" fill="#697587"/><path d="m266.1611 213.438c0 1.806 1.268 4.002 2.832 4.905s2.832.171 2.832-1.635-1.268-4.002-2.832-4.905-2.832-.171-2.832 1.635" fill="#e5e6e8"/><path d="m277.4883 219.978c0 1.806 1.268 4.002 2.832 4.905s2.832.171 2.832-1.635-1.268-4.002-2.832-4.905-2.832-.171-2.832 1.635" fill="#697587"/><path d="m220.8525 174.1997c0 1.806 1.268 4.002 2.832 4.905s2.832.171 2.832-1.635-1.268-4.002-2.832-4.905-2.832-.171-2.832 1.635m11.3272 6.5396c0 1.806 1.268 4.002 2.832 4.905s2.832.171 2.832-1.635-1.268-4.002-2.832-4.905-2.832-.171-2.832 1.635m11.3271 6.54c0 1.806 1.268 4.002 2.832 4.905s2.832.171 2.832-1.635-1.268-4.002-2.832-4.905-2.832-.171-2.832 1.635m11.3272 6.5395c0 1.806 1.268 4.002 2.832 4.905s2.832.171 2.832-1.635-1.268-4.002-2.832-4.905-2.832-.171-2.832 1.635m11.3271 6.5401c0 1.806 1.268 4.002 2.832 4.905s2.832.171 2.832-1.635-1.268-4.002-2.832-4.905-2.832-.171-2.832 1.635m11.3272 6.5395c0 1.806 1.268 4.002 2.832 4.905s2.832.171 2.832-1.635-1.268-4.002-2.832-4.905-2.832-.171-2.832 1.635m-56.6358-45.7783c0 1.806 1.268 4.002 2.832 4.905s2.832.171 2.832-1.635-1.268-4.002-2.832-4.905-2.832-.171-2.832 1.635" fill="#e5e6e8"/><path d="m232.1797 167.6602c0 1.806 1.268 4.002 2.832 4.905s2.832.171 2.832-1.635-1.268-4.002-2.832-4.905-2.832-.171-2.832 1.635m11.3271 6.5395c0 1.806 1.268 4.002 2.832 4.905s2.832.171 2.832-1.635-1.268-4.002-2.832-4.905-2.832-.171-2.832 1.635" fill="#697587"/><path d="m254.834 180.7397c0 1.806 1.268 4.001 2.832 4.905 1.564.903 2.832.171 2.832-1.635s-1.268-4.002-2.832-4.905-2.832-.171-2.832 1.635m11.3271 6.5396c0 1.806 1.268 4.002 2.832 4.905s2.832.171 2.832-1.635-1.268-4.002-2.832-4.905-2.832-.171-2.832 1.635m11.3272 6.5395c0 1.806 1.268 4.002 2.832 4.905s2.832.171 2.832-1.635-1.268-4.002-2.832-4.905-2.832-.171-2.832 1.635" fill="#e5e6e8"/><path d="m220.8525 148.041c0 1.806 1.268 4.001 2.832 4.905 1.564.903 2.832.171 2.832-1.635s-1.268-4.002-2.832-4.905-2.832-.171-2.832 1.635" fill="#697587"/><path d="m232.1797 154.5806c0 1.806 1.268 4.002 2.832 4.905s2.832.171 2.832-1.635-1.268-4.002-2.832-4.905-2.832-.171-2.832 1.635m11.3271 6.54c0 1.806 1.268 4.001 2.832 4.905 1.564.903 2.832.171 2.832-1.635s-1.268-4.002-2.832-4.905-2.832-.171-2.832 1.635m11.3272 6.5396c0 1.806 1.268 4.002 2.832 4.905s2.832.171 2.832-1.635-1.268-4.002-2.832-4.905-2.832-.171-2.832 1.635m11.3271 6.5395c0 1.806 1.268 4.002 2.832 4.905s2.832.171 2.832-1.635-1.268-4.002-2.832-4.905-2.832-.171-2.832 1.635m11.3272 6.54c0 1.806 1.268 4.002 2.832 4.905s2.832.171 2.832-1.635-1.268-4.002-2.832-4.905-2.832-.171-2.832 1.635" fill="#e5e6e8"/><path d="m455.4932 195.4541-24.695-14.258c-4-2.309-4-8.083 0-10.392l40.883-23.604" stroke="#425066" stroke-width="2"/><path d="m459.4932 195.4541c0-2.209-1.791-4-4-4s-4 1.791-4 4 1.791 4 4 4 4-1.791 4-4" fill="#f5f6f7"/><path d="m459.4932 195.4541c0-2.209-1.791-4-4-4s-4 1.791-4 4 1.791 4 4 4 4-1.791 4-4z" stroke="#425066" stroke-width="2"/><path d="m475.6812 147.1997c0-2.209-1.791-4-4-4s-4 1.791-4 4 1.791 4 4 4 4-1.791 4-4" fill="#425066"/><path d="m475.6812 147.1997c0-2.209-1.791-4-4-4s-4 1.791-4 4 1.791 4 4 4 4-1.791 4-4z" stroke="#425066" stroke-width="2"/><path d="m230 194c0-5.523 4.477-10 10-10s10 4.477 10 10-4.477 10-10 10-10-4.477-10-10" fill="#ff6f00"/><path d="m200.7456 171.3364c0 25.033 17.575 55.474 39.254 67.991 21.68 12.516 39.255 2.37 39.255-22.664 0-25.033-17.575-55.473-39.255-67.991-21.679-12.516-39.254-2.37-39.254 22.664z" stroke="#ff6f00" stroke-dasharray="12.001 8.001" stroke-width="2"/></g></svg>