<?xml version="1.0" standalone="no"?>
<!DOCTYPE svg PUBLIC "-//W3C//DTD SVG 20010904//EN"
 "http://www.w3.org/TR/2001/REC-SVG-20010904/DTD/svg10.dtd">
<svg version="1.0" xmlns="http://www.w3.org/2000/svg"
 width="474.000000pt" height="474.000000pt" viewBox="0 0 474.000000 474.000000"
 preserveAspectRatio="xMidYMid meet">

<g transform="translate(0.000000,474.000000) scale(0.100000,-0.100000)"
fill="#000000" stroke="none">
<path d="M2365 3239 c-30 -17 -45 -40 -45 -70 0 -23 -19 -41 -132 -125 -73
-54 -156 -115 -185 -136 -52 -40 -68 -44 -114 -33 -49 12 -118 -76 -79 -100
18 -11 11 -21 -71 -114 -74 -84 -84 -92 -109 -86 -39 8 -88 -18 -96 -52 -5
-17 -1 -38 11 -59 17 -32 17 -33 -11 -86 -26 -47 -33 -53 -68 -59 -41 -7 -76
-38 -76 -68 0 -29 52 -71 89 -71 60 0 106 77 66 110 -21 17 -19 27 12 88 34
66 61 70 96 15 34 -54 39 -76 22 -99 -21 -28 -18 -62 10 -89 30 -31 73 -32
109 -4 51 40 25 108 -45 119 -25 4 -37 16 -62 62 -31 54 -31 57 -14 76 13 14
17 32 15 65 -3 43 0 47 72 129 74 84 75 85 122 85 47 -1 47 -1 119 -89 69 -86
71 -89 59 -119 -11 -27 -10 -33 9 -59 l21 -30 -30 -60 c-28 -56 -33 -60 -64
-60 -25 0 -40 -7 -55 -26 -27 -35 -26 -55 4 -88 29 -31 79 -35 111 -8 31 25
36 50 17 89 -16 34 -15 36 10 89 23 46 31 54 54 53 24 0 32 -9 55 -54 l28 -54
-21 -35 c-23 -39 -17 -62 23 -90 49 -35 128 0 128 57 0 32 -40 67 -76 67 -27
0 -33 6 -59 60 l-28 59 18 35 c18 32 18 35 1 61 -20 31 -58 47 -91 39 -15 -4
-26 0 -32 9 -4 8 -21 30 -38 49 -95 105 -96 109 -89 142 4 17 7 41 6 53 -1 17
36 49 178 152 98 72 186 134 194 137 8 3 24 0 37 -6 17 -10 30 -9 59 0 37 12
37 12 137 -61 55 -41 139 -102 187 -137 73 -54 86 -67 85 -90 -1 -15 2 -40 5
-57 6 -23 2 -36 -16 -55 -13 -14 -45 -51 -72 -83 -42 -50 -52 -58 -74 -52 -34
8 -77 -11 -91 -41 -15 -35 -14 -44 11 -71 l21 -23 -31 -57 c-26 -49 -36 -59
-61 -61 -36 -4 -81 -46 -81 -77 0 -33 40 -65 82 -65 69 0 105 64 63 110 -17
19 -17 22 13 77 25 47 36 59 59 61 26 3 31 -3 56 -54 25 -49 26 -58 14 -73
-29 -32 -29 -57 -1 -90 34 -41 84 -43 119 -5 14 15 25 35 25 44 0 31 -38 69
-72 72 -28 3 -37 11 -63 58 -31 55 -31 55 -14 89 13 24 15 40 8 58 -13 34 -13
33 31 83 22 25 55 63 72 86 30 38 36 41 79 40 46 -1 48 -3 127 -90 79 -87 80
-90 67 -116 -12 -24 -12 -30 6 -59 l19 -32 -30 -59 c-27 -53 -34 -60 -59 -60
-20 0 -37 -9 -54 -30 -30 -35 -26 -61 11 -90 30 -24 70 -26 100 -4 37 25 42
54 19 94 l-20 35 27 53 c23 45 30 52 55 52 25 0 34 -8 60 -56 l30 -56 -20 -27
c-57 -77 57 -153 124 -83 15 15 27 36 27 46 0 28 -46 66 -79 66 -26 0 -34 7
-61 58 l-31 57 20 35 c17 31 18 38 5 62 -14 27 -70 53 -95 43 -19 -7 -30 3
-117 101 -71 79 -71 81 -59 113 11 31 10 34 -21 62 -34 31 -52 35 -81 19 -19
-10 -54 5 -108 47 -15 12 -68 51 -118 87 -49 36 -103 76 -119 88 -15 13 -37
27 -47 32 -14 6 -19 20 -19 46 0 23 -7 43 -18 53 -24 22 -72 30 -97 16z"/>
<path d="M1787 2061 c-115 -24 -164 -153 -86 -227 18 -17 64 -39 121 -58 91
-30 93 -32 96 -64 4 -44 -12 -62 -58 -62 -30 0 -43 6 -59 26 -12 15 -21 33
-21 41 0 10 -6 13 -16 9 -9 -3 -40 -6 -70 -6 -63 0 -67 -10 -31 -75 33 -60 81
-79 192 -79 100 0 135 13 177 63 37 43 44 103 18 157 -24 50 -84 84 -182 105
-56 12 -58 13 -58 45 0 45 30 63 67 39 14 -10 28 -26 31 -37 4 -16 10 -19 35
-14 16 3 47 6 68 6 29 0 39 4 39 16 0 29 -35 76 -71 94 -42 22 -138 32 -192
21z"/>
<path d="M2830 2061 c-74 -16 -127 -58 -154 -121 -53 -129 -9 -302 89 -350 94
-45 228 -34 282 23 72 76 69 98 -14 120 -36 9 -67 16 -67 15 -1 -2 -9 -20 -19
-40 -18 -42 -53 -57 -96 -42 -38 14 -51 49 -51 144 0 111 20 150 78 150 37 0
75 -23 84 -52 4 -11 13 -11 51 0 26 6 56 12 67 12 11 0 20 6 20 13 0 25 -52
87 -88 106 -43 22 -132 33 -182 22z"/>
<path d="M3374 2061 c-101 -25 -157 -86 -176 -189 -14 -76 0 -168 33 -217 50
-73 149 -106 258 -87 122 22 175 96 175 247 1 95 -12 133 -58 183 -46 52 -158
82 -232 63z m116 -121 c27 -27 33 -57 29 -149 -5 -97 -28 -131 -89 -131 -61 0
-84 34 -89 131 -5 129 16 169 89 169 26 0 47 -7 60 -20z"/>
<path d="M1094 2045 c-4 -8 -4 -89 -2 -178 4 -148 7 -166 29 -206 33 -60 68
-81 152 -93 148 -21 235 22 270 133 14 44 17 85 15 204 l-3 150 -75 0 -75 0
-5 -183 c-6 -207 -8 -212 -82 -212 -63 0 -69 19 -71 222 l-2 173 -73 3 c-58 2
-73 0 -78 -13z"/>
<path d="M2196 1823 c-47 -131 -86 -242 -86 -246 0 -4 30 -7 68 -5 l67 3 9 38
10 37 102 0 102 0 7 -40 7 -40 73 0 73 0 -19 53 c-11 28 -24 61 -29 72 -5 11
-14 38 -21 60 -6 22 -26 78 -44 125 -17 47 -40 106 -49 133 l-18 47 -82 0 -83
0 -87 -237z m207 25 l26 -78 -60 0 c-32 0 -59 3 -59 7 0 23 54 163 60 156 4
-4 19 -43 33 -85z"/>
</g>
</svg>
