<?xml version="1.0" standalone="no"?><!DOCTYPE svg PUBLIC "-//W3C//DTD SVG 1.1//EN" "http://www.w3.org/Graphics/SVG/1.1/DTD/svg11.dtd"><svg class="icon" width="200px" height="188.06px" viewBox="0 0 1089 1024" version="1.1" xmlns="http://www.w3.org/2000/svg"><path d="M181.717679 720.108496v-173.412401a28.637327 28.637327 0 0 1 4.94686-18.153614 23.463547 23.463547 0 0 1 19.832824-7.442982h303.074591v199.689758h66.896069v-199.689758h304.708416a21.330497 21.330497 0 0 1 17.336702 5.763773 21.648185 21.648185 0 0 1 5.763773 19.015911v175.046226l66.896068 0.816912v-218.84182a45.65634 45.65634 0 0 0-12.389841-34.673404 56.140052 56.140052 0 0 0-36.307229-15.702876h-346.053273V303.891504h-66.896069v149.44963H164.335594a43.840979 43.840979 0 0 0-35.490316 14.885963 48.878607 48.878607 0 0 0-13.206755 37.169526v215.528786z" fill="#2E282A" /><path d="M990.143509 1023.954616H883.627177a99.391038 99.391038 0 0 1-99.07335-99.07335v-106.516332a99.391038 99.391038 0 0 1 99.027966-99.118734h106.516332a99.391038 99.391038 0 0 1 99.07335 99.07335v106.516332a99.391038 99.391038 0 0 1-99.027966 99.118734z" fill="#2E282A" /><path d="M597.889288 1023.954616h-106.561716a99.391038 99.391038 0 0 1-99.07335-99.07335v-106.516332a99.391038 99.391038 0 0 1 99.07335-99.118734h106.516332a99.391038 99.391038 0 0 1 99.07335 99.07335v106.516332a99.391038 99.391038 0 0 1-99.027966 99.118734z" fill="#2E282A" /><path d="M204.818154 1023.954616h-105.744804A99.391038 99.391038 0 0 1 0 924.881266v-106.516332a99.391038 99.391038 0 0 1 99.07335-99.118734H205.589682a99.391038 99.391038 0 0 1 99.07335 99.07335v106.516332a100.661791 100.661791 0 0 1-99.844878 99.118734z" fill="#2E282A" /><path d="M597.072375 304.708416h-105.744803a99.391038 99.391038 0 0 1-99.07335-99.07335V99.07335A99.391038 99.391038 0 0 1 491.327572 0h106.516332a99.391038 99.391038 0 0 1 99.07335 99.07335V205.589682a100.661791 100.661791 0 0 1-99.844879 99.118734z" fill="#2E282A" /></svg>